ISO-10303-21;
HEADER;

/* File generated by Shapr3D Version 5.880.0.8980 */

FILE_DESCRIPTION(('HOOPS Exchange Step'),'2;1');

FILE_NAME('/Users/luisschulte/Library/Containers/com.shapr3d.shapr/Data/tmp/export/temp_export',
'2025-07-01T13:58:14+02:00',
('luisschulte'),
('Shapr3D Limited'),
'HOOPS Exchange 2024.8',
'Shapr3D',
'Authorized');

FILE_SCHEMA( ('AP242_MANAGED_MODEL_BASED_3D_ENGINEERING_MIM_LF {1 0 10303 442 1 1 4}') );

ENDSEC;

DATA;
#3=(NAMED_UNIT(*)PLANE_ANGLE_UNIT()SI_UNIT($,.RADIAN.));
#4=PLANE_ANGLE_MEASURE_WITH_UNIT(PLANE_ANGLE_MEASURE(0.0174532925),#3);
#5=(CONVERSION_BASED_UNIT('DEGREE',#4)NAMED_UNIT(#6)PLANE_ANGLE_UNIT());
#6=DIMENSIONAL_EXPONENTS(0.,0.,0.,0.,0.,0.,0.);
#7=(NAMED_UNIT(*)SI_UNIT($,.STERADIAN.)SOLID_ANGLE_UNIT());
#8=(LENGTH_UNIT()NAMED_UNIT(*)SI_UNIT(.MILLI.,.METRE.));
#9=UNCERTAINTY_MEASURE_WITH_UNIT(LENGTH_MEASURE(1.000000E-05),#8,'DISTANCE_ACCURACY_VALUE','Maximum Tolerance applied to model');
#10=(GEOMETRIC_REPRESENTATION_CONTEXT(3)GLOBAL_UNCERTAINTY_ASSIGNED_CONTEXT((#9))GLOBAL_UNIT_ASSIGNED_CONTEXT((#8,#5,#7))REPRESENTATION_CONTEXT('','root'));
#12=CARTESIAN_POINT('',(0.,0.,0.));
#13=DIRECTION('',(0.,0.,1.));
#14=DIRECTION('',(1.,0.,0.));
#15=AXIS2_PLACEMENT_3D('',#12,#13,#14);
#27=CARTESIAN_POINT('',(17.55,10.1,2.));
#28=DIRECTION('',(0.,1.,0.));
#29=DIRECTION('',(0.,0.,1.));
#30=AXIS2_PLACEMENT_3D('',#27,#28,#29);
#31=PLANE('',#30);
#32=CARTESIAN_POINT('',(15.11,10.1,-0.607157288));
#33=VERTEX_POINT('',#32);
#34=CARTESIAN_POINT('',(15.099998998,10.1,-0.617158289));
#35=VERTEX_POINT('',#34);
#36=CARTESIAN_POINT('',(15.11,10.1,-0.607157288));
#37=DIRECTION('',(-0.707106781,0.,-0.707106781));
#38=VECTOR('',#37,0.014143552);
#39=LINE('',#36,#38);
#40=EDGE_CURVE('',#33,#35,#39,.T.);
#41=ORIENTED_EDGE('',*,*,#40,.F.);
#42=CARTESIAN_POINT('',(15.11,10.1,0.0000015));
#43=VERTEX_POINT('',#42);
#44=CARTESIAN_POINT('',(15.11,10.1,-0.607157288));
#45=DIRECTION('',(-0.,-0.,1.));
#46=VECTOR('',#45,0.607158787);
#47=LINE('',#44,#46);
#48=EDGE_CURVE('',#33,#43,#47,.T.);
#49=ORIENTED_EDGE('',*,*,#48,.T.);
#50=CARTESIAN_POINT('',(15.0999985,10.1,0.0000015));
#51=VERTEX_POINT('',#50);
#52=CARTESIAN_POINT('',(15.0999985,10.1,0.0000015));
#53=DIRECTION('',(1.,0.,-0.));
#54=VECTOR('',#53,0.0100015);
#55=LINE('',#52,#54);
#56=EDGE_CURVE('',#51,#43,#55,.T.);
#57=ORIENTED_EDGE('',*,*,#56,.F.);
#58=CARTESIAN_POINT('',(15.099998998,10.1,-0.617158289));
#59=DIRECTION('',(-0.000000807,0.,1.));
#60=VECTOR('',#59,0.617159789);
#61=LINE('',#58,#60);
#62=EDGE_CURVE('',#35,#51,#61,.T.);
#63=ORIENTED_EDGE('',*,*,#62,.F.);
#64=EDGE_LOOP('',(#41,#49,#57,#63));
#65=FACE_BOUND('',#64,.T.);
#66=ADVANCED_FACE('',(#65),#31,.F.);
#67=CARTESIAN_POINT('',(0.,15.,0.));
#68=DIRECTION('',(0.,-1.,0.));
#69=DIRECTION('',(0.,0.,-1.));
#70=AXIS2_PLACEMENT_3D('',#67,#68,#69);
#71=PLANE('',#70);
#72=CARTESIAN_POINT('',(11.71715556,15.,-4.000001728));
#73=VERTEX_POINT('',#72);
#74=CARTESIAN_POINT('',(15.717158787,15.,0.0000015));
#75=VERTEX_POINT('',#74);
#76=CARTESIAN_POINT('',(11.71715556,15.,-4.000001728));
#77=DIRECTION('',(0.707106781,0.,0.707106781));
#78=VECTOR('',#77,5.656858814);
#79=LINE('',#76,#78);
#80=EDGE_CURVE('',#73,#75,#79,.T.);
#81=ORIENTED_EDGE('',*,*,#80,.F.);
#82=CARTESIAN_POINT('',(-16.,15.,-4.));
#83=VERTEX_POINT('',#82);
#84=CARTESIAN_POINT('',(-16.,15.,-4.));
#85=DIRECTION('',(1.,0.,0.));
#86=VECTOR('',#85,27.71715556);
#87=LINE('',#84,#86);
#88=EDGE_CURVE('',#83,#73,#87,.T.);
#89=ORIENTED_EDGE('',*,*,#88,.F.);
#90=CARTESIAN_POINT('',(-16.,15.,0.));
#91=VERTEX_POINT('',#90);
#92=CARTESIAN_POINT('',(-16.,15.,-4.));
#93=DIRECTION('',(0.,0.,1.));
#94=VECTOR('',#93,4.);
#95=LINE('',#92,#94);
#96=EDGE_CURVE('',#83,#91,#95,.T.);
#97=ORIENTED_EDGE('',*,*,#96,.T.);
#98=CARTESIAN_POINT('',(15.717158787,15.,0.0000015));
#99=DIRECTION('',(-1.,0.,0.));
#100=VECTOR('',#99,31.717158787);
#101=LINE('',#98,#100);
#102=EDGE_CURVE('',#75,#91,#101,.T.);
#103=ORIENTED_EDGE('',*,*,#102,.F.);
#104=EDGE_LOOP('',(#81,#89,#97,#103));
#105=FACE_BOUND('',#104,.T.);
#106=ADVANCED_FACE('',(#105),#71,.F.);
#107=CARTESIAN_POINT('',(15.408578893,10.098,-0.308578395));
#108=DIRECTION('',(-0.707106781,0.,0.707106781));
#109=DIRECTION('',(0.707106781,0.,0.707106781));
#110=AXIS2_PLACEMENT_3D('',#107,#108,#109);
#111=PLANE('',#110);
#112=CARTESIAN_POINT('',(15.717158787,10.1,0.0000015));
#113=VERTEX_POINT('',#112);
#114=CARTESIAN_POINT('',(15.717158787,10.1,0.0000015));
#115=DIRECTION('',(0.,1.,0.));
#116=VECTOR('',#115,4.9);
#117=LINE('',#114,#116);
#118=EDGE_CURVE('',#113,#75,#117,.T.);
#119=ORIENTED_EDGE('',*,*,#118,.F.);
#120=CARTESIAN_POINT('',(15.717158787,10.1,0.0000015));
#121=DIRECTION('',(-0.707106781,0.,-0.707106781));
#122=VECTOR('',#121,0.858652191);
#123=LINE('',#120,#122);
#124=EDGE_CURVE('',#113,#33,#123,.T.);
#125=ORIENTED_EDGE('',*,*,#124,.T.);
#126=ORIENTED_EDGE('',*,*,#40,.T.);
#127=CARTESIAN_POINT('',(15.099998998,10.11,-0.617158289));
#128=VERTEX_POINT('',#127);
#129=CARTESIAN_POINT('',(15.099998998,10.1,-0.617158289));
#130=DIRECTION('',(0.,1.,0.));
#131=VECTOR('',#130,0.01);
#132=LINE('',#129,#131);
#133=EDGE_CURVE('',#35,#128,#132,.T.);
#134=ORIENTED_EDGE('',*,*,#133,.T.);
#135=CARTESIAN_POINT('',(15.09,10.1,-0.627157288));
#136=VERTEX_POINT('',#135);
#137=CARTESIAN_POINT('',(15.09,10.11,-0.627157288));
#138=DIRECTION('',(0.707106781,-0.,-0.707106781));
#139=DIRECTION('',(0.707106781,0.,0.707106781));
#140=AXIS2_PLACEMENT_3D('',#137,#138,#139);
#141=ELLIPSE('',#140,0.014142136,0.01);
#142=EDGE_CURVE('',#128,#136,#141,.T.);
#143=ORIENTED_EDGE('',*,*,#142,.T.);
#144=CARTESIAN_POINT('',(12.717157288,10.1,-3.));
#145=VERTEX_POINT('',#144);
#146=CARTESIAN_POINT('',(12.717157288,10.1,-3.));
#147=DIRECTION('',(0.707106781,0.,0.707106781));
#148=VECTOR('',#147,3.355706345);
#149=LINE('',#146,#148);
#150=EDGE_CURVE('',#145,#136,#149,.T.);
#151=ORIENTED_EDGE('',*,*,#150,.F.);
#152=CARTESIAN_POINT('',(11.71715556,10.1,-4.000001728));
#153=VERTEX_POINT('',#152);
#154=CARTESIAN_POINT('',(11.71715556,10.1,-4.000001728));
#155=DIRECTION('',(0.707106781,0.,0.707106781));
#156=VECTOR('',#155,1.414216006);
#157=LINE('',#154,#156);
#158=EDGE_CURVE('',#153,#145,#157,.T.);
#159=ORIENTED_EDGE('',*,*,#158,.F.);
#160=CARTESIAN_POINT('',(11.71715556,10.1,-4.000001728));
#161=DIRECTION('',(0.,1.,0.));
#162=VECTOR('',#161,4.9);
#163=LINE('',#160,#162);
#164=EDGE_CURVE('',#153,#73,#163,.T.);
#165=ORIENTED_EDGE('',*,*,#164,.T.);
#166=ORIENTED_EDGE('',*,*,#80,.T.);
#167=EDGE_LOOP('',(#119,#125,#126,#134,#143,#151,#159,#165,#166));
#168=FACE_BOUND('',#167,.T.);
#169=ADVANCED_FACE('',(#168),#111,.F.);
#170=CARTESIAN_POINT('',(15.099998749,10.098,-0.308578395));
#171=DIRECTION('',(1.,0.,0.000000807));
#172=DIRECTION('',(0.000000807,0.,-1.));
#173=AXIS2_PLACEMENT_3D('',#170,#171,#172);
#174=PLANE('',#173);
#175=CARTESIAN_POINT('',(15.1,10.11,0.));
#176=VERTEX_POINT('',#175);
#177=CARTESIAN_POINT('',(15.0999985,10.1,0.0000015));
#178=DIRECTION('',(0.,1.,0.));
#179=VECTOR('',#178,0.01);
#180=LINE('',#177,#179);
#181=EDGE_CURVE('',#51,#176,#180,.T.);
#182=ORIENTED_EDGE('',*,*,#181,.T.);
#183=CARTESIAN_POINT('',(15.1,10.11,0.));
#184=DIRECTION('',(-0.,-0.,-1.));
#185=VECTOR('',#184,0.617158289);
#186=LINE('',#183,#185);
#187=EDGE_CURVE('',#176,#128,#186,.T.);
#188=ORIENTED_EDGE('',*,*,#187,.T.);
#189=ORIENTED_EDGE('',*,*,#133,.F.);
#190=ORIENTED_EDGE('',*,*,#62,.T.);
#191=EDGE_LOOP('',(#182,#188,#189,#190));
#192=FACE_BOUND('',#191,.T.);
#193=ADVANCED_FACE('',(#192),#174,.F.);
#194=CARTESIAN_POINT('',(15.408578644,10.098,0.0000015));
#195=DIRECTION('',(0.,0.,-1.));
#196=DIRECTION('',(-1.,0.,0.));
#197=AXIS2_PLACEMENT_3D('',#194,#195,#196);
#198=PLANE('',#197);
#199=ORIENTED_EDGE('',*,*,#181,.F.);
#200=ORIENTED_EDGE('',*,*,#56,.T.);
#201=CARTESIAN_POINT('',(15.11,10.1,0.0000015));
#202=DIRECTION('',(1.,0.,-0.));
#203=VECTOR('',#202,0.607158787);
#204=LINE('',#201,#203);
#205=EDGE_CURVE('',#43,#113,#204,.T.);
#206=ORIENTED_EDGE('',*,*,#205,.T.);
#207=ORIENTED_EDGE('',*,*,#118,.T.);
#208=ORIENTED_EDGE('',*,*,#102,.T.);
#209=CARTESIAN_POINT('',(-21.,10.,0.));
#210=VERTEX_POINT('',#209);
#211=CARTESIAN_POINT('',(-16.,10.,0.));
#212=DIRECTION('',(0.,0.,1.));
#213=DIRECTION('',(1.,0.,-0.));
#214=AXIS2_PLACEMENT_3D('',#211,#212,#213);
#215=CIRCLE('',#214,5.);
#216=EDGE_CURVE('',#91,#210,#215,.T.);
#217=ORIENTED_EDGE('',*,*,#216,.T.);
#218=CARTESIAN_POINT('',(-21.,-10.,0.));
#219=VERTEX_POINT('',#218);
#220=CARTESIAN_POINT('',(-21.,-10.,0.));
#221=DIRECTION('',(0.,1.,0.));
#222=VECTOR('',#221,20.);
#223=LINE('',#220,#222);
#224=EDGE_CURVE('',#219,#210,#223,.T.);
#225=ORIENTED_EDGE('',*,*,#224,.F.);
#226=CARTESIAN_POINT('',(-16.,-15.,0.));
#227=VERTEX_POINT('',#226);
#228=CARTESIAN_POINT('',(-16.,-10.,0.));
#229=DIRECTION('',(0.,0.,1.));
#230=DIRECTION('',(1.,0.,-0.));
#231=AXIS2_PLACEMENT_3D('',#228,#229,#230);
#232=CIRCLE('',#231,5.);
#233=EDGE_CURVE('',#219,#227,#232,.T.);
#234=ORIENTED_EDGE('',*,*,#233,.T.);
#235=CARTESIAN_POINT('',(15.717160287,-15.,0.));
#236=VERTEX_POINT('',#235);
#237=CARTESIAN_POINT('',(15.717160287,-15.,0.));
#238=DIRECTION('',(-1.,0.,0.));
#239=VECTOR('',#238,31.717160287);
#240=LINE('',#237,#239);
#241=EDGE_CURVE('',#236,#227,#240,.T.);
#242=ORIENTED_EDGE('',*,*,#241,.F.);
#243=CARTESIAN_POINT('',(15.717160287,-10.1,0.));
#244=VERTEX_POINT('',#243);
#245=CARTESIAN_POINT('',(15.717160287,-10.1,0.));
#246=DIRECTION('',(0.,-1.,0.));
#247=VECTOR('',#246,4.9);
#248=LINE('',#245,#247);
#249=EDGE_CURVE('',#244,#236,#248,.T.);
#250=ORIENTED_EDGE('',*,*,#249,.F.);
#251=CARTESIAN_POINT('',(15.11,-10.1,0.));
#252=VERTEX_POINT('',#251);
#253=CARTESIAN_POINT('',(15.717160287,-10.1,0.));
#254=DIRECTION('',(-1.,0.,0.));
#255=VECTOR('',#254,0.607160287);
#256=LINE('',#253,#255);
#257=EDGE_CURVE('',#244,#252,#256,.T.);
#258=ORIENTED_EDGE('',*,*,#257,.T.);
#259=CARTESIAN_POINT('',(15.1,-10.1,0.));
#260=VERTEX_POINT('',#259);
#261=CARTESIAN_POINT('',(15.11,-10.1,0.));
#262=DIRECTION('',(-1.,0.,0.));
#263=VECTOR('',#262,0.01);
#264=LINE('',#261,#263);
#265=EDGE_CURVE('',#252,#260,#264,.T.);
#266=ORIENTED_EDGE('',*,*,#265,.T.);
#267=CARTESIAN_POINT('',(15.1,-10.11,0.));
#268=VERTEX_POINT('',#267);
#269=CARTESIAN_POINT('',(15.1,-10.1,0.));
#270=DIRECTION('',(0.,-1.,0.));
#271=VECTOR('',#270,0.01);
#272=LINE('',#269,#271);
#273=EDGE_CURVE('',#260,#268,#272,.T.);
#274=ORIENTED_EDGE('',*,*,#273,.T.);
#275=CARTESIAN_POINT('',(15.09,-10.1,0.));
#276=VERTEX_POINT('',#275);
#277=CARTESIAN_POINT('',(15.09,-10.11,0.));
#278=DIRECTION('',(0.,0.,1.));
#279=DIRECTION('',(1.,0.,-0.));
#280=AXIS2_PLACEMENT_3D('',#277,#278,#279);
#281=CIRCLE('',#280,0.01);
#282=EDGE_CURVE('',#268,#276,#281,.T.);
#283=ORIENTED_EDGE('',*,*,#282,.T.);
#284=CARTESIAN_POINT('',(7.7,-10.1,0.));
#285=VERTEX_POINT('',#284);
#286=CARTESIAN_POINT('',(15.09,-10.1,0.));
#287=DIRECTION('',(-1.,-0.,0.));
#288=VECTOR('',#287,7.39);
#289=LINE('',#286,#288);
#290=EDGE_CURVE('',#276,#285,#289,.T.);
#291=ORIENTED_EDGE('',*,*,#290,.T.);
#292=CARTESIAN_POINT('',(3.7,-10.1,0.));
#293=VERTEX_POINT('',#292);
#294=CARTESIAN_POINT('',(5.7,-10.1,0.));
#295=DIRECTION('',(0.,0.,1.));
#296=DIRECTION('',(1.,0.,-0.));
#297=AXIS2_PLACEMENT_3D('',#294,#295,#296);
#298=CIRCLE('',#297,2.);
#299=EDGE_CURVE('',#285,#293,#298,.T.);
#300=ORIENTED_EDGE('',*,*,#299,.T.);
#301=CARTESIAN_POINT('',(-15.1,-10.1,0.));
#302=VERTEX_POINT('',#301);
#303=CARTESIAN_POINT('',(3.7,-10.1,0.));
#304=DIRECTION('',(-1.,-0.,0.));
#305=VECTOR('',#304,18.8);
#306=LINE('',#303,#305);
#307=EDGE_CURVE('',#293,#302,#306,.T.);
#308=ORIENTED_EDGE('',*,*,#307,.T.);
#309=CARTESIAN_POINT('',(-15.1,10.1,0.));
#310=VERTEX_POINT('',#309);
#311=CARTESIAN_POINT('',(-15.1,-10.1,0.));
#312=DIRECTION('',(-0.,1.,0.));
#313=VECTOR('',#312,20.2);
#314=LINE('',#311,#313);
#315=EDGE_CURVE('',#302,#310,#314,.T.);
#316=ORIENTED_EDGE('',*,*,#315,.T.);
#317=CARTESIAN_POINT('',(3.7,10.1,0.));
#318=VERTEX_POINT('',#317);
#319=CARTESIAN_POINT('',(-15.1,10.1,0.));
#320=DIRECTION('',(1.,0.,-0.));
#321=VECTOR('',#320,18.8);
#322=LINE('',#319,#321);
#323=EDGE_CURVE('',#310,#318,#322,.T.);
#324=ORIENTED_EDGE('',*,*,#323,.T.);
#325=CARTESIAN_POINT('',(7.7,10.1,0.));
#326=VERTEX_POINT('',#325);
#327=CARTESIAN_POINT('',(5.7,10.1,0.));
#328=DIRECTION('',(0.,0.,1.));
#329=DIRECTION('',(1.,0.,-0.));
#330=AXIS2_PLACEMENT_3D('',#327,#328,#329);
#331=CIRCLE('',#330,2.);
#332=EDGE_CURVE('',#318,#326,#331,.T.);
#333=ORIENTED_EDGE('',*,*,#332,.T.);
#334=CARTESIAN_POINT('',(15.09,10.1,0.));
#335=VERTEX_POINT('',#334);
#336=CARTESIAN_POINT('',(7.7,10.1,0.));
#337=DIRECTION('',(1.,0.,-0.));
#338=VECTOR('',#337,7.39);
#339=LINE('',#336,#338);
#340=EDGE_CURVE('',#326,#335,#339,.T.);
#341=ORIENTED_EDGE('',*,*,#340,.T.);
#342=CARTESIAN_POINT('',(15.09,10.11,0.));
#343=DIRECTION('',(0.,0.,1.));
#344=DIRECTION('',(1.,0.,-0.));
#345=AXIS2_PLACEMENT_3D('',#342,#343,#344);
#346=CIRCLE('',#345,0.01);
#347=EDGE_CURVE('',#335,#176,#346,.T.);
#348=ORIENTED_EDGE('',*,*,#347,.T.);
#349=EDGE_LOOP('',(#199,#200,#206,#207,#208,#217,#225,#234,#242,#250,#258,#266,#274,#283,#291,#300,#308,#316,#324,#333,#341,#348));
#350=FACE_BOUND('',#349,.T.);
#351=CARTESIAN_POINT('',(-16.55,-0.,0.));
#352=VERTEX_POINT('',#351);
#353=CARTESIAN_POINT('',(-17.55,-0.,0.));
#354=DIRECTION('',(0.,0.,1.));
#355=DIRECTION('',(1.,0.,-0.));
#356=AXIS2_PLACEMENT_3D('',#353,#354,#355);
#357=CIRCLE('',#356,1.);
#358=EDGE_CURVE('',#352,#352,#357,.T.);
#359=ORIENTED_EDGE('',*,*,#358,.F.);
#360=EDGE_LOOP('',(#359));
#361=FACE_BOUND('',#360,.T.);
#362=ADVANCED_FACE('',(#350,#361),#198,.F.);
#363=CARTESIAN_POINT('',(17.55,10.1,2.));
#364=DIRECTION('',(0.,1.,0.));
#365=DIRECTION('',(0.,0.,1.));
#366=AXIS2_PLACEMENT_3D('',#363,#364,#365);
#367=PLANE('',#366);
#368=ORIENTED_EDGE('',*,*,#124,.F.);
#369=ORIENTED_EDGE('',*,*,#205,.F.);
#370=CARTESIAN_POINT('',(15.11,10.1,2.));
#371=VERTEX_POINT('',#370);
#372=CARTESIAN_POINT('',(15.11,10.1,0.0000015));
#373=DIRECTION('',(-0.,-0.,1.));
#374=VECTOR('',#373,1.9999985);
#375=LINE('',#372,#374);
#376=EDGE_CURVE('',#43,#371,#375,.T.);
#377=ORIENTED_EDGE('',*,*,#376,.T.);
#378=CARTESIAN_POINT('',(20.,10.1,2.));
#379=VERTEX_POINT('',#378);
#380=CARTESIAN_POINT('',(15.11,10.1,2.));
#381=DIRECTION('',(1.,0.,-0.));
#382=VECTOR('',#381,4.89);
#383=LINE('',#380,#382);
#384=EDGE_CURVE('',#371,#379,#383,.T.);
#385=ORIENTED_EDGE('',*,*,#384,.T.);
#386=CARTESIAN_POINT('',(20.,10.1,-4.));
#387=VERTEX_POINT('',#386);
#388=CARTESIAN_POINT('',(20.,10.1,2.));
#389=DIRECTION('',(0.,0.,-1.));
#390=VECTOR('',#389,6.);
#391=LINE('',#388,#390);
#392=EDGE_CURVE('',#379,#387,#391,.T.);
#393=ORIENTED_EDGE('',*,*,#392,.T.);
#394=CARTESIAN_POINT('',(15.1,10.1,-4.000002662));
#395=VERTEX_POINT('',#394);
#396=CARTESIAN_POINT('',(15.1,10.1,-4.));
#397=DIRECTION('',(1.,0.,-0.));
#398=VECTOR('',#397,4.9);
#399=LINE('',#396,#398);
#400=EDGE_CURVE('',#395,#387,#399,.T.);
#401=ORIENTED_EDGE('',*,*,#400,.F.);
#402=CARTESIAN_POINT('',(11.9999985,10.1,-4.0000015));
#403=VERTEX_POINT('',#402);
#404=CARTESIAN_POINT('',(15.1,10.1,-4.000002662));
#405=DIRECTION('',(-1.,0.,0.000000375));
#406=VECTOR('',#405,3.1000015);
#407=LINE('',#404,#406);
#408=EDGE_CURVE('',#395,#403,#407,.T.);
#409=ORIENTED_EDGE('',*,*,#408,.T.);
#410=CARTESIAN_POINT('',(11.71715556,10.1,-4.000001728));
#411=DIRECTION('',(1.,0.,0.000000807));
#412=VECTOR('',#411,0.282842941);
#413=LINE('',#410,#412);
#414=EDGE_CURVE('',#153,#403,#413,.T.);
#415=ORIENTED_EDGE('',*,*,#414,.F.);
#416=ORIENTED_EDGE('',*,*,#158,.T.);
#417=CARTESIAN_POINT('',(15.11,10.1,-3.));
#418=VERTEX_POINT('',#417);
#419=CARTESIAN_POINT('',(12.717157288,10.1,-3.));
#420=DIRECTION('',(1.,0.,-0.));
#421=VECTOR('',#420,2.392842712);
#422=LINE('',#419,#421);
#423=EDGE_CURVE('',#145,#418,#422,.T.);
#424=ORIENTED_EDGE('',*,*,#423,.T.);
#425=CARTESIAN_POINT('',(15.11,10.1,-3.));
#426=DIRECTION('',(-0.,-0.,1.));
#427=VECTOR('',#426,2.392842712);
#428=LINE('',#425,#427);
#429=EDGE_CURVE('',#418,#33,#428,.T.);
#430=ORIENTED_EDGE('',*,*,#429,.T.);
#431=EDGE_LOOP('',(#368,#369,#377,#385,#393,#401,#409,#415,#416,#424,#430));
#432=FACE_BOUND('',#431,.T.);
#433=ADVANCED_FACE('',(#432),#367,.T.);
#434=CARTESIAN_POINT('',(-0.,10.1,-1.5));
#435=DIRECTION('',(0.,-1.,0.));
#436=DIRECTION('',(0.,0.,-1.));
#437=AXIS2_PLACEMENT_3D('',#434,#435,#436);
#438=PLANE('',#437);
#439=CARTESIAN_POINT('',(10.1,10.1,-3.));
#440=VERTEX_POINT('',#439);
#441=CARTESIAN_POINT('',(10.1,10.1,-3.));
#442=DIRECTION('',(1.,0.,-0.));
#443=VECTOR('',#442,2.617157288);
#444=LINE('',#441,#443);
#445=EDGE_CURVE('',#440,#145,#444,.T.);
#446=ORIENTED_EDGE('',*,*,#445,.T.);
#447=ORIENTED_EDGE('',*,*,#150,.T.);
#448=CARTESIAN_POINT('',(15.09,10.1,-0.627157288));
#449=DIRECTION('',(0.,0.,1.));
#450=VECTOR('',#449,0.627157288);
#451=LINE('',#448,#450);
#452=EDGE_CURVE('',#136,#335,#451,.T.);
#453=ORIENTED_EDGE('',*,*,#452,.T.);
#454=ORIENTED_EDGE('',*,*,#340,.F.);
#455=CARTESIAN_POINT('',(7.7,10.1,-1.5));
#456=VERTEX_POINT('',#455);
#457=CARTESIAN_POINT('',(7.7,10.1,0.));
#458=DIRECTION('',(0.,0.,-1.));
#459=VECTOR('',#458,1.5);
#460=LINE('',#457,#459);
#461=EDGE_CURVE('',#326,#456,#460,.T.);
#462=ORIENTED_EDGE('',*,*,#461,.T.);
#463=CARTESIAN_POINT('',(10.1,10.1,-1.5));
#464=VERTEX_POINT('',#463);
#465=CARTESIAN_POINT('',(7.7,10.1,-1.5));
#466=DIRECTION('',(1.,0.,-0.));
#467=VECTOR('',#466,2.4);
#468=LINE('',#465,#467);
#469=EDGE_CURVE('',#456,#464,#468,.T.);
#470=ORIENTED_EDGE('',*,*,#469,.T.);
#471=CARTESIAN_POINT('',(10.1,10.1,-3.));
#472=DIRECTION('',(0.,0.,1.));
#473=VECTOR('',#472,1.5);
#474=LINE('',#471,#473);
#475=EDGE_CURVE('',#440,#464,#474,.T.);
#476=ORIENTED_EDGE('',*,*,#475,.F.);
#477=EDGE_LOOP('',(#446,#447,#453,#454,#462,#470,#476));
#478=FACE_BOUND('',#477,.T.);
#479=ADVANCED_FACE('',(#478),#438,.T.);
#480=CARTESIAN_POINT('',(0.,0.,-4.));
#481=DIRECTION('',(0.,0.,1.));
#482=DIRECTION('',(1.,0.,0.));
#483=AXIS2_PLACEMENT_3D('',#480,#481,#482);
#484=PLANE('',#483);
#485=CARTESIAN_POINT('',(-19.45,-0.,-4.));
#486=VERTEX_POINT('',#485);
#487=CARTESIAN_POINT('',(-17.55,-0.,-4.));
#488=DIRECTION('',(0.,0.,-1.));
#489=DIRECTION('',(-1.,0.,0.));
#490=AXIS2_PLACEMENT_3D('',#487,#488,#489);
#491=CIRCLE('',#490,1.9);
#492=EDGE_CURVE('',#486,#486,#491,.T.);
#493=ORIENTED_EDGE('',*,*,#492,.F.);
#494=EDGE_LOOP('',(#493));
#495=FACE_BOUND('',#494,.T.);
#496=ORIENTED_EDGE('',*,*,#164,.F.);
#497=ORIENTED_EDGE('',*,*,#414,.T.);
#498=ORIENTED_EDGE('',*,*,#408,.F.);
#499=ORIENTED_EDGE('',*,*,#400,.T.);
#500=CARTESIAN_POINT('',(20.,-10.1,-4.));
#501=VERTEX_POINT('',#500);
#502=CARTESIAN_POINT('',(20.,10.1,-4.));
#503=DIRECTION('',(0.,-1.,0.));
#504=VECTOR('',#503,20.2);
#505=LINE('',#502,#504);
#506=EDGE_CURVE('',#387,#501,#505,.T.);
#507=ORIENTED_EDGE('',*,*,#506,.T.);
#508=CARTESIAN_POINT('',(15.1,-10.1,-4.000002285));
#509=VERTEX_POINT('',#508);
#510=CARTESIAN_POINT('',(15.1,-10.1,-4.));
#511=DIRECTION('',(1.,0.,-0.));
#512=VECTOR('',#511,4.9);
#513=LINE('',#510,#512);
#514=EDGE_CURVE('',#509,#501,#513,.T.);
#515=ORIENTED_EDGE('',*,*,#514,.F.);
#516=CARTESIAN_POINT('',(12.,-10.1,-4.000002999));
#517=VERTEX_POINT('',#516);
#518=CARTESIAN_POINT('',(15.1,-10.1,-4.000002285));
#519=DIRECTION('',(-1.,0.,0.000000375));
#520=VECTOR('',#519,3.1);
#521=LINE('',#518,#520);
#522=EDGE_CURVE('',#509,#517,#521,.T.);
#523=ORIENTED_EDGE('',*,*,#522,.T.);
#524=CARTESIAN_POINT('',(11.717155332,-10.1,-4.));
#525=VERTEX_POINT('',#524);
#526=CARTESIAN_POINT('',(11.717155332,-10.1,-4.));
#527=DIRECTION('',(1.,0.,-0.));
#528=VECTOR('',#527,0.282844668);
#529=LINE('',#526,#528);
#530=EDGE_CURVE('',#525,#517,#529,.T.);
#531=ORIENTED_EDGE('',*,*,#530,.F.);
#532=CARTESIAN_POINT('',(11.717155332,-15.,-4.));
#533=VERTEX_POINT('',#532);
#534=CARTESIAN_POINT('',(11.717155332,-10.1,-4.));
#535=DIRECTION('',(0.,-1.,0.));
#536=VECTOR('',#535,4.9);
#537=LINE('',#534,#536);
#538=EDGE_CURVE('',#525,#533,#537,.T.);
#539=ORIENTED_EDGE('',*,*,#538,.T.);
#540=CARTESIAN_POINT('',(-16.,-15.,-4.));
#541=VERTEX_POINT('',#540);
#542=CARTESIAN_POINT('',(11.717155332,-15.,-4.));
#543=DIRECTION('',(-1.,0.,0.));
#544=VECTOR('',#543,27.717155332);
#545=LINE('',#542,#544);
#546=EDGE_CURVE('',#533,#541,#545,.T.);
#547=ORIENTED_EDGE('',*,*,#546,.T.);
#548=CARTESIAN_POINT('',(-21.,-10.,-4.));
#549=VERTEX_POINT('',#548);
#550=CARTESIAN_POINT('',(-16.,-10.,-4.));
#551=DIRECTION('',(-0.,-0.,-1.));
#552=DIRECTION('',(1.,0.,-0.));
#553=AXIS2_PLACEMENT_3D('',#550,#551,#552);
#554=CIRCLE('',#553,5.);
#555=EDGE_CURVE('',#541,#549,#554,.T.);
#556=ORIENTED_EDGE('',*,*,#555,.T.);
#557=CARTESIAN_POINT('',(-21.,10.,-4.));
#558=VERTEX_POINT('',#557);
#559=CARTESIAN_POINT('',(-21.,-10.,-4.));
#560=DIRECTION('',(0.,1.,0.));
#561=VECTOR('',#560,20.);
#562=LINE('',#559,#561);
#563=EDGE_CURVE('',#549,#558,#562,.T.);
#564=ORIENTED_EDGE('',*,*,#563,.T.);
#565=CARTESIAN_POINT('',(-16.,10.,-4.));
#566=DIRECTION('',(-0.,-0.,-1.));
#567=DIRECTION('',(1.,0.,-0.));
#568=AXIS2_PLACEMENT_3D('',#565,#566,#567);
#569=CIRCLE('',#568,5.);
#570=EDGE_CURVE('',#558,#83,#569,.T.);
#571=ORIENTED_EDGE('',*,*,#570,.T.);
#572=ORIENTED_EDGE('',*,*,#88,.T.);
#573=EDGE_LOOP('',(#496,#497,#498,#499,#507,#515,#523,#531,#539,#547,#556,#564,#571,#572));
#574=FACE_BOUND('',#573,.T.);
#575=ADVANCED_FACE('',(#495,#574),#484,.F.);
#576=CARTESIAN_POINT('',(17.55,-10.1,2.));
#577=DIRECTION('',(0.,1.,0.));
#578=DIRECTION('',(0.,0.,1.));
#579=AXIS2_PLACEMENT_3D('',#576,#577,#578);
#580=PLANE('',#579);
#581=ORIENTED_EDGE('',*,*,#257,.F.);
#582=CARTESIAN_POINT('',(15.11,-10.1,-0.607159307));
#583=VERTEX_POINT('',#582);
#584=CARTESIAN_POINT('',(15.11,-10.1,-0.607159307));
#585=DIRECTION('',(0.707107352,0.,0.707106211));
#586=VECTOR('',#585,0.858653619);
#587=LINE('',#584,#586);
#588=EDGE_CURVE('',#583,#244,#587,.T.);
#589=ORIENTED_EDGE('',*,*,#588,.F.);
#590=CARTESIAN_POINT('',(15.11,-10.1,-3.));
#591=VERTEX_POINT('',#590);
#592=CARTESIAN_POINT('',(15.11,-10.1,-0.607159307));
#593=DIRECTION('',(-0.,-0.,-1.));
#594=VECTOR('',#593,2.392840693);
#595=LINE('',#592,#594);
#596=EDGE_CURVE('',#583,#591,#595,.T.);
#597=ORIENTED_EDGE('',*,*,#596,.T.);
#598=CARTESIAN_POINT('',(12.717155446,-10.1,-3.));
#599=VERTEX_POINT('',#598);
#600=CARTESIAN_POINT('',(15.11,-10.1,-3.));
#601=DIRECTION('',(-1.,-0.,0.));
#602=VECTOR('',#601,2.392844554);
#603=LINE('',#600,#602);
#604=EDGE_CURVE('',#591,#599,#603,.T.);
#605=ORIENTED_EDGE('',*,*,#604,.T.);
#606=CARTESIAN_POINT('',(11.717154582,-10.1,-3.99999925));
#607=DIRECTION('',(0.707107352,0.,0.707106211));
#608=VECTOR('',#607,1.414213643);
#609=LINE('',#606,#608);
#610=EDGE_CURVE('',#525,#599,#609,.T.);
#611=ORIENTED_EDGE('',*,*,#610,.F.);
#612=ORIENTED_EDGE('',*,*,#530,.T.);
#613=ORIENTED_EDGE('',*,*,#522,.F.);
#614=ORIENTED_EDGE('',*,*,#514,.T.);
#615=CARTESIAN_POINT('',(20.,-10.1,2.));
#616=VERTEX_POINT('',#615);
#617=CARTESIAN_POINT('',(20.,-10.1,2.));
#618=DIRECTION('',(0.,0.,-1.));
#619=VECTOR('',#618,6.);
#620=LINE('',#617,#619);
#621=EDGE_CURVE('',#616,#501,#620,.T.);
#622=ORIENTED_EDGE('',*,*,#621,.F.);
#623=CARTESIAN_POINT('',(15.11,-10.1,2.));
#624=VERTEX_POINT('',#623);
#625=CARTESIAN_POINT('',(15.11,-10.1,2.));
#626=DIRECTION('',(1.,0.,-0.));
#627=VECTOR('',#626,4.89);
#628=LINE('',#625,#627);
#629=EDGE_CURVE('',#624,#616,#628,.T.);
#630=ORIENTED_EDGE('',*,*,#629,.F.);
#631=CARTESIAN_POINT('',(15.11,-10.1,2.));
#632=DIRECTION('',(-0.,-0.,-1.));
#633=VECTOR('',#632,2.);
#634=LINE('',#631,#633);
#635=EDGE_CURVE('',#624,#252,#634,.T.);
#636=ORIENTED_EDGE('',*,*,#635,.T.);
#637=EDGE_LOOP('',(#581,#589,#597,#605,#611,#612,#613,#614,#622,#630,#636));
#638=FACE_BOUND('',#637,.T.);
#639=ADVANCED_FACE('',(#638),#580,.F.);
#640=CARTESIAN_POINT('',(0.,0.,-3.));
#641=DIRECTION('',(0.,0.,1.));
#642=DIRECTION('',(1.,0.,0.));
#643=AXIS2_PLACEMENT_3D('',#640,#641,#642);
#644=PLANE('',#643);
#645=ORIENTED_EDGE('',*,*,#423,.F.);
#646=ORIENTED_EDGE('',*,*,#445,.F.);
#647=CARTESIAN_POINT('',(10.1,-10.1,-3.));
#648=VERTEX_POINT('',#647);
#649=CARTESIAN_POINT('',(10.1,10.1,-3.));
#650=DIRECTION('',(0.,-1.,0.));
#651=VECTOR('',#650,20.2);
#652=LINE('',#649,#651);
#653=EDGE_CURVE('',#440,#648,#652,.T.);
#654=ORIENTED_EDGE('',*,*,#653,.T.);
#655=CARTESIAN_POINT('',(12.717155446,-10.1,-3.));
#656=DIRECTION('',(-1.,-0.,0.));
#657=VECTOR('',#656,2.617155446);
#658=LINE('',#655,#657);
#659=EDGE_CURVE('',#599,#648,#658,.T.);
#660=ORIENTED_EDGE('',*,*,#659,.F.);
#661=ORIENTED_EDGE('',*,*,#604,.F.);
#662=CARTESIAN_POINT('',(15.1,-10.09,-3.));
#663=VERTEX_POINT('',#662);
#664=CARTESIAN_POINT('',(15.11,-10.09,-3.));
#665=DIRECTION('',(-0.,-0.,-1.));
#666=DIRECTION('',(1.,0.,-0.));
#667=AXIS2_PLACEMENT_3D('',#664,#665,#666);
#668=CIRCLE('',#667,0.01);
#669=EDGE_CURVE('',#591,#663,#668,.T.);
#670=ORIENTED_EDGE('',*,*,#669,.T.);
#671=CARTESIAN_POINT('',(15.1,10.09,-3.));
#672=VERTEX_POINT('',#671);
#673=CARTESIAN_POINT('',(15.1,10.09,-3.));
#674=DIRECTION('',(0.,-1.,0.));
#675=VECTOR('',#674,20.18);
#676=LINE('',#673,#675);
#677=EDGE_CURVE('',#672,#663,#676,.T.);
#678=ORIENTED_EDGE('',*,*,#677,.F.);
#679=CARTESIAN_POINT('',(15.11,10.09,-3.));
#680=DIRECTION('',(-0.,-0.,-1.));
#681=DIRECTION('',(1.,0.,-0.));
#682=AXIS2_PLACEMENT_3D('',#679,#680,#681);
#683=CIRCLE('',#682,0.01);
#684=EDGE_CURVE('',#672,#418,#683,.T.);
#685=ORIENTED_EDGE('',*,*,#684,.T.);
#686=EDGE_LOOP('',(#645,#646,#654,#660,#661,#670,#678,#685));
#687=FACE_BOUND('',#686,.T.);
#688=ADVANCED_FACE('',(#687),#644,.T.);
#689=CARTESIAN_POINT('',(15.09,-10.11,-9.8));
#690=DIRECTION('',(0.,0.,-1.));
#691=DIRECTION('',(-1.,0.,0.));
#692=AXIS2_PLACEMENT_3D('',#689,#690,#691);
#693=CYLINDRICAL_SURFACE('',#692,0.01);
#694=CARTESIAN_POINT('',(15.1,-10.11,-0.617159291));
#695=VERTEX_POINT('',#694);
#696=CARTESIAN_POINT('',(15.1,-10.11,-0.617159291));
#697=DIRECTION('',(0.,0.,1.));
#698=VECTOR('',#697,0.617159291);
#699=LINE('',#696,#698);
#700=EDGE_CURVE('',#695,#268,#699,.T.);
#701=ORIENTED_EDGE('',*,*,#700,.F.);
#702=CARTESIAN_POINT('',(15.09,-10.1,-0.627159275));
#703=VERTEX_POINT('',#702);
#704=CARTESIAN_POINT('',(15.09,-10.11,-0.627159275));
#705=DIRECTION('',(-0.707106211,-0.,0.707107352));
#706=DIRECTION('',(-0.707107352,0.,-0.707106211));
#707=AXIS2_PLACEMENT_3D('',#704,#705,#706);
#708=ELLIPSE('',#707,0.014142124,0.01);
#709=EDGE_CURVE('',#695,#703,#708,.T.);
#710=ORIENTED_EDGE('',*,*,#709,.T.);
#711=CARTESIAN_POINT('',(15.09,-10.1,-0.));
#712=DIRECTION('',(-0.,-0.,-1.));
#713=VECTOR('',#712,0.627159275);
#714=LINE('',#711,#713);
#715=EDGE_CURVE('',#276,#703,#714,.T.);
#716=ORIENTED_EDGE('',*,*,#715,.F.);
#717=ORIENTED_EDGE('',*,*,#282,.F.);
#718=EDGE_LOOP('',(#701,#710,#716,#717));
#719=FACE_BOUND('',#718,.T.);
#720=ADVANCED_FACE('',(#719),#693,.T.);
#721=CARTESIAN_POINT('',(0.,0.,-1.5));
#722=DIRECTION('',(0.,0.,1.));
#723=DIRECTION('',(1.,0.,0.));
#724=AXIS2_PLACEMENT_3D('',#721,#722,#723);
#725=PLANE('',#724);
#726=CARTESIAN_POINT('',(1.95,0.,-1.5));
#727=VERTEX_POINT('',#726);
#728=CARTESIAN_POINT('',(4.45,-0.,-1.5));
#729=VERTEX_POINT('',#728);
#730=CARTESIAN_POINT('',(3.2,0.,-1.5));
#731=DIRECTION('',(0.,0.,1.));
#732=DIRECTION('',(1.,0.,-0.));
#733=AXIS2_PLACEMENT_3D('',#730,#731,#732);
#734=CIRCLE('',#733,1.25);
#735=EDGE_CURVE('',#727,#729,#734,.T.);
#736=ORIENTED_EDGE('',*,*,#735,.F.);
#737=CARTESIAN_POINT('',(3.2,0.,-1.5));
#738=DIRECTION('',(0.,0.,1.));
#739=DIRECTION('',(1.,0.,-0.));
#740=AXIS2_PLACEMENT_3D('',#737,#738,#739);
#741=CIRCLE('',#740,1.25);
#742=EDGE_CURVE('',#729,#727,#741,.T.);
#743=ORIENTED_EDGE('',*,*,#742,.F.);
#744=EDGE_LOOP('',(#736,#743));
#745=FACE_BOUND('',#744,.T.);
#746=CARTESIAN_POINT('',(3.7,10.1,-1.5));
#747=VERTEX_POINT('',#746);
#748=CARTESIAN_POINT('',(5.7,10.1,-1.5));
#749=DIRECTION('',(0.,0.,1.));
#750=DIRECTION('',(1.,0.,-0.));
#751=AXIS2_PLACEMENT_3D('',#748,#749,#750);
#752=CIRCLE('',#751,2.);
#753=EDGE_CURVE('',#747,#456,#752,.T.);
#754=ORIENTED_EDGE('',*,*,#753,.F.);
#755=CARTESIAN_POINT('',(-15.1,10.1,-1.5));
#756=VERTEX_POINT('',#755);
#757=CARTESIAN_POINT('',(-15.1,10.1,-1.5));
#758=DIRECTION('',(1.,0.,-0.));
#759=VECTOR('',#758,18.8);
#760=LINE('',#757,#759);
#761=EDGE_CURVE('',#756,#747,#760,.T.);
#762=ORIENTED_EDGE('',*,*,#761,.F.);
#763=CARTESIAN_POINT('',(-15.1,-10.1,-1.5));
#764=VERTEX_POINT('',#763);
#765=CARTESIAN_POINT('',(-15.1,-10.1,-1.5));
#766=DIRECTION('',(-0.,1.,0.));
#767=VECTOR('',#766,20.2);
#768=LINE('',#765,#767);
#769=EDGE_CURVE('',#764,#756,#768,.T.);
#770=ORIENTED_EDGE('',*,*,#769,.F.);
#771=CARTESIAN_POINT('',(3.7,-10.1,-1.5));
#772=VERTEX_POINT('',#771);
#773=CARTESIAN_POINT('',(3.7,-10.1,-1.5));
#774=DIRECTION('',(-1.,-0.,0.));
#775=VECTOR('',#774,18.8);
#776=LINE('',#773,#775);
#777=EDGE_CURVE('',#772,#764,#776,.T.);
#778=ORIENTED_EDGE('',*,*,#777,.F.);
#779=CARTESIAN_POINT('',(7.7,-10.1,-1.5));
#780=VERTEX_POINT('',#779);
#781=CARTESIAN_POINT('',(5.7,-10.1,-1.5));
#782=DIRECTION('',(0.,0.,1.));
#783=DIRECTION('',(1.,0.,-0.));
#784=AXIS2_PLACEMENT_3D('',#781,#782,#783);
#785=CIRCLE('',#784,2.);
#786=EDGE_CURVE('',#780,#772,#785,.T.);
#787=ORIENTED_EDGE('',*,*,#786,.F.);
#788=CARTESIAN_POINT('',(10.1,-10.1,-1.5));
#789=VERTEX_POINT('',#788);
#790=CARTESIAN_POINT('',(10.1,-10.1,-1.5));
#791=DIRECTION('',(-1.,-0.,0.));
#792=VECTOR('',#791,2.4);
#793=LINE('',#790,#792);
#794=EDGE_CURVE('',#789,#780,#793,.T.);
#795=ORIENTED_EDGE('',*,*,#794,.F.);
#796=CARTESIAN_POINT('',(10.1,10.1,-1.5));
#797=DIRECTION('',(0.,-1.,0.));
#798=VECTOR('',#797,20.2);
#799=LINE('',#796,#798);
#800=EDGE_CURVE('',#464,#789,#799,.T.);
#801=ORIENTED_EDGE('',*,*,#800,.F.);
#802=ORIENTED_EDGE('',*,*,#469,.F.);
#803=EDGE_LOOP('',(#754,#762,#770,#778,#787,#795,#801,#802));
#804=FACE_BOUND('',#803,.T.);
#805=ADVANCED_FACE('',(#745,#804),#725,.T.);
#806=CARTESIAN_POINT('',(-17.55,-0.,-6.6));
#807=DIRECTION('',(0.,0.,1.));
#808=DIRECTION('',(1.,0.,-0.));
#809=AXIS2_PLACEMENT_3D('',#806,#807,#808);
#810=CYLINDRICAL_SURFACE('',#809,1.);
#811=CARTESIAN_POINT('',(-16.55,-0.,-2.));
#812=VERTEX_POINT('',#811);
#813=CARTESIAN_POINT('',(-16.55,-0.,0.));
#814=DIRECTION('',(-0.,-0.,-1.));
#815=VECTOR('',#814,2.);
#816=LINE('',#813,#815);
#817=EDGE_CURVE('',#352,#812,#816,.T.);
#818=ORIENTED_EDGE('',*,*,#817,.F.);
#819=ORIENTED_EDGE('',*,*,#358,.T.);
#820=ORIENTED_EDGE('',*,*,#817,.T.);
#821=CARTESIAN_POINT('',(-18.55,-0.,-2.));
#822=VERTEX_POINT('',#821);
#823=CARTESIAN_POINT('',(-17.55,-0.,-2.));
#824=DIRECTION('',(0.,0.,1.));
#825=DIRECTION('',(-1.,0.,0.));
#826=AXIS2_PLACEMENT_3D('',#823,#824,#825);
#827=CIRCLE('',#826,1.);
#828=EDGE_CURVE('',#822,#812,#827,.T.);
#829=ORIENTED_EDGE('',*,*,#828,.F.);
#830=CARTESIAN_POINT('',(-17.55,-0.,-2.));
#831=DIRECTION('',(0.,0.,1.));
#832=DIRECTION('',(-1.,0.,0.));
#833=AXIS2_PLACEMENT_3D('',#830,#831,#832);
#834=CIRCLE('',#833,1.);
#835=EDGE_CURVE('',#812,#822,#834,.T.);
#836=ORIENTED_EDGE('',*,*,#835,.F.);
#837=EDGE_LOOP('',(#818,#819,#820,#829,#836));
#838=FACE_BOUND('',#837,.T.);
#839=ADVANCED_FACE('',(#838),#810,.F.);
#840=CARTESIAN_POINT('',(20.,0.,-3.));
#841=DIRECTION('',(-1.,0.,0.));
#842=DIRECTION('',(0.,0.,1.));
#843=AXIS2_PLACEMENT_3D('',#840,#841,#842);
#844=PLANE('',#843);
#845=ORIENTED_EDGE('',*,*,#506,.F.);
#846=ORIENTED_EDGE('',*,*,#392,.F.);
#847=CARTESIAN_POINT('',(20.,10.1,2.));
#848=DIRECTION('',(0.,-1.,0.));
#849=VECTOR('',#848,20.2);
#850=LINE('',#847,#849);
#851=EDGE_CURVE('',#379,#616,#850,.T.);
#852=ORIENTED_EDGE('',*,*,#851,.T.);
#853=ORIENTED_EDGE('',*,*,#621,.T.);
#854=EDGE_LOOP('',(#845,#846,#852,#853));
#855=FACE_BOUND('',#854,.T.);
#856=ADVANCED_FACE('',(#855),#844,.F.);
#857=CARTESIAN_POINT('',(0.,-10.1,-1.5));
#858=DIRECTION('',(-0.,1.,0.));
#859=DIRECTION('',(-1.,-0.,0.));
#860=AXIS2_PLACEMENT_3D('',#857,#858,#859);
#861=PLANE('',#860);
#862=ORIENTED_EDGE('',*,*,#307,.F.);
#863=CARTESIAN_POINT('',(3.7,-10.1,0.));
#864=DIRECTION('',(0.,0.,-1.));
#865=VECTOR('',#864,1.5);
#866=LINE('',#863,#865);
#867=EDGE_CURVE('',#293,#772,#866,.T.);
#868=ORIENTED_EDGE('',*,*,#867,.T.);
#869=ORIENTED_EDGE('',*,*,#777,.T.);
#870=CARTESIAN_POINT('',(-15.1,-10.1,-1.5));
#871=DIRECTION('',(0.,0.,1.));
#872=VECTOR('',#871,1.5);
#873=LINE('',#870,#872);
#874=EDGE_CURVE('',#764,#302,#873,.T.);
#875=ORIENTED_EDGE('',*,*,#874,.T.);
#876=EDGE_LOOP('',(#862,#868,#869,#875));
#877=FACE_BOUND('',#876,.T.);
#878=ADVANCED_FACE('',(#877),#861,.T.);
#879=CARTESIAN_POINT('',(-21.,0.,-3.));
#880=DIRECTION('',(1.,0.,0.));
#881=DIRECTION('',(0.,0.,-1.));
#882=AXIS2_PLACEMENT_3D('',#879,#880,#881);
#883=PLANE('',#882);
#884=ORIENTED_EDGE('',*,*,#224,.T.);
#885=CARTESIAN_POINT('',(-21.,10.,0.));
#886=DIRECTION('',(-0.,-0.,-1.));
#887=VECTOR('',#886,4.);
#888=LINE('',#885,#887);
#889=EDGE_CURVE('',#210,#558,#888,.T.);
#890=ORIENTED_EDGE('',*,*,#889,.T.);
#891=ORIENTED_EDGE('',*,*,#563,.F.);
#892=CARTESIAN_POINT('',(-21.,-10.,-4.));
#893=DIRECTION('',(0.,0.,1.));
#894=VECTOR('',#893,4.);
#895=LINE('',#892,#894);
#896=EDGE_CURVE('',#549,#219,#895,.T.);
#897=ORIENTED_EDGE('',*,*,#896,.T.);
#898=EDGE_LOOP('',(#884,#890,#891,#897));
#899=FACE_BOUND('',#898,.T.);
#900=ADVANCED_FACE('',(#899),#883,.F.);
#901=CARTESIAN_POINT('',(0.,-15.,-3.));
#902=DIRECTION('',(0.,1.,0.));
#903=DIRECTION('',(0.,0.,1.));
#904=AXIS2_PLACEMENT_3D('',#901,#902,#903);
#905=PLANE('',#904);
#906=ORIENTED_EDGE('',*,*,#546,.F.);
#907=CARTESIAN_POINT('',(11.717154582,-15.,-3.99999925));
#908=DIRECTION('',(0.707107352,0.,0.707106211));
#909=VECTOR('',#908,5.656857753);
#910=LINE('',#907,#909);
#911=EDGE_CURVE('',#533,#236,#910,.T.);
#912=ORIENTED_EDGE('',*,*,#911,.T.);
#913=ORIENTED_EDGE('',*,*,#241,.T.);
#914=CARTESIAN_POINT('',(-16.,-15.,0.));
#915=DIRECTION('',(-0.,-0.,-1.));
#916=VECTOR('',#915,4.);
#917=LINE('',#914,#916);
#918=EDGE_CURVE('',#227,#541,#917,.T.);
#919=ORIENTED_EDGE('',*,*,#918,.T.);
#920=EDGE_LOOP('',(#906,#912,#913,#919));
#921=FACE_BOUND('',#920,.T.);
#922=ADVANCED_FACE('',(#921),#905,.F.);
#923=CARTESIAN_POINT('',(15.1,-0.,-1.5));
#924=DIRECTION('',(-1.,-0.,0.));
#925=DIRECTION('',(0.,-1.,0.));
#926=AXIS2_PLACEMENT_3D('',#923,#924,#925);
#927=PLANE('',#926);
#928=CARTESIAN_POINT('',(15.1,10.09,2.));
#929=VERTEX_POINT('',#928);
#930=CARTESIAN_POINT('',(15.1,-10.09,2.));
#931=VERTEX_POINT('',#930);
#932=CARTESIAN_POINT('',(15.1,10.09,2.));
#933=DIRECTION('',(0.,-1.,0.));
#934=VECTOR('',#933,20.18);
#935=LINE('',#932,#934);
#936=EDGE_CURVE('',#929,#931,#935,.T.);
#937=ORIENTED_EDGE('',*,*,#936,.F.);
#938=CARTESIAN_POINT('',(15.1,10.09,2.));
#939=DIRECTION('',(0.,0.,-1.));
#940=VECTOR('',#939,5.);
#941=LINE('',#938,#940);
#942=EDGE_CURVE('',#929,#672,#941,.T.);
#943=ORIENTED_EDGE('',*,*,#942,.T.);
#944=ORIENTED_EDGE('',*,*,#677,.T.);
#945=CARTESIAN_POINT('',(15.1,-10.09,-3.));
#946=DIRECTION('',(0.,0.,1.));
#947=VECTOR('',#946,5.);
#948=LINE('',#945,#947);
#949=EDGE_CURVE('',#663,#931,#948,.T.);
#950=ORIENTED_EDGE('',*,*,#949,.T.);
#951=EDGE_LOOP('',(#937,#943,#944,#950));
#952=FACE_BOUND('',#951,.T.);
#953=ADVANCED_FACE('',(#952),#927,.T.);
#954=CARTESIAN_POINT('',(-0.,10.1,-1.5));
#955=DIRECTION('',(0.,-1.,0.));
#956=DIRECTION('',(0.,0.,-1.));
#957=AXIS2_PLACEMENT_3D('',#954,#955,#956);
#958=PLANE('',#957);
#959=CARTESIAN_POINT('',(3.7,10.1,0.));
#960=DIRECTION('',(0.,0.,-1.));
#961=VECTOR('',#960,1.5);
#962=LINE('',#959,#961);
#963=EDGE_CURVE('',#318,#747,#962,.T.);
#964=ORIENTED_EDGE('',*,*,#963,.F.);
#965=ORIENTED_EDGE('',*,*,#323,.F.);
#966=CARTESIAN_POINT('',(-15.1,10.1,-1.5));
#967=DIRECTION('',(0.,0.,1.));
#968=VECTOR('',#967,1.5);
#969=LINE('',#966,#968);
#970=EDGE_CURVE('',#756,#310,#969,.T.);
#971=ORIENTED_EDGE('',*,*,#970,.F.);
#972=ORIENTED_EDGE('',*,*,#761,.T.);
#973=EDGE_LOOP('',(#964,#965,#971,#972));
#974=FACE_BOUND('',#973,.T.);
#975=ADVANCED_FACE('',(#974),#958,.T.);
#976=CARTESIAN_POINT('',(-15.1,-0.,-1.5));
#977=DIRECTION('',(1.,0.,0.));
#978=DIRECTION('',(-0.,1.,0.));
#979=AXIS2_PLACEMENT_3D('',#976,#977,#978);
#980=PLANE('',#979);
#981=ORIENTED_EDGE('',*,*,#315,.F.);
#982=ORIENTED_EDGE('',*,*,#874,.F.);
#983=ORIENTED_EDGE('',*,*,#769,.T.);
#984=ORIENTED_EDGE('',*,*,#970,.T.);
#985=EDGE_LOOP('',(#981,#982,#983,#984));
#986=FACE_BOUND('',#985,.T.);
#987=ADVANCED_FACE('',(#986),#980,.T.);
#988=CARTESIAN_POINT('',(0.,-10.1,-1.5));
#989=DIRECTION('',(-0.,1.,0.));
#990=DIRECTION('',(-1.,-0.,0.));
#991=AXIS2_PLACEMENT_3D('',#988,#989,#990);
#992=PLANE('',#991);
#993=CARTESIAN_POINT('',(12.717155446,-10.1,-3.));
#994=DIRECTION('',(0.707107352,0.,0.707106211));
#995=VECTOR('',#994,3.355706243);
#996=LINE('',#993,#995);
#997=EDGE_CURVE('',#599,#703,#996,.T.);
#998=ORIENTED_EDGE('',*,*,#997,.F.);
#999=ORIENTED_EDGE('',*,*,#659,.T.);
#1000=CARTESIAN_POINT('',(10.1,-10.1,-3.));
#1001=DIRECTION('',(0.,0.,1.));
#1002=VECTOR('',#1001,1.5);
#1003=LINE('',#1000,#1002);
#1004=EDGE_CURVE('',#648,#789,#1003,.T.);
#1005=ORIENTED_EDGE('',*,*,#1004,.T.);
#1006=ORIENTED_EDGE('',*,*,#794,.T.);
#1007=CARTESIAN_POINT('',(7.7,-10.1,0.));
#1008=DIRECTION('',(0.,0.,-1.));
#1009=VECTOR('',#1008,1.5);
#1010=LINE('',#1007,#1009);
#1011=EDGE_CURVE('',#285,#780,#1010,.T.);
#1012=ORIENTED_EDGE('',*,*,#1011,.F.);
#1013=ORIENTED_EDGE('',*,*,#290,.F.);
#1014=ORIENTED_EDGE('',*,*,#715,.T.);
#1015=EDGE_LOOP('',(#998,#999,#1005,#1006,#1012,#1013,#1014));
#1016=FACE_BOUND('',#1015,.T.);
#1017=ADVANCED_FACE('',(#1016),#992,.T.);
#1018=CARTESIAN_POINT('',(10.1,-0.,-3.));
#1019=DIRECTION('',(-1.,0.,0.));
#1020=DIRECTION('',(0.,0.,1.));
#1021=AXIS2_PLACEMENT_3D('',#1018,#1019,#1020);
#1022=PLANE('',#1021);
#1023=ORIENTED_EDGE('',*,*,#800,.T.);
#1024=ORIENTED_EDGE('',*,*,#1004,.F.);
#1025=ORIENTED_EDGE('',*,*,#653,.F.);
#1026=ORIENTED_EDGE('',*,*,#475,.T.);
#1027=EDGE_LOOP('',(#1023,#1024,#1025,#1026));
#1028=FACE_BOUND('',#1027,.T.);
#1029=ADVANCED_FACE('',(#1028),#1022,.F.);
#1030=CARTESIAN_POINT('',(3.2,0.,0.));
#1031=DIRECTION('',(0.,0.,-1.));
#1032=DIRECTION('',(-1.,0.,0.));
#1033=AXIS2_PLACEMENT_3D('',#1030,#1031,#1032);
#1034=CYLINDRICAL_SURFACE('',#1033,1.25);
#1035=CARTESIAN_POINT('',(1.95,0.,0.));
#1036=VERTEX_POINT('',#1035);
#1037=CARTESIAN_POINT('',(1.95,0.,-1.5));
#1038=DIRECTION('',(-0.,-0.,1.));
#1039=VECTOR('',#1038,1.5);
#1040=LINE('',#1037,#1039);
#1041=EDGE_CURVE('',#727,#1036,#1040,.T.);
#1042=ORIENTED_EDGE('',*,*,#1041,.T.);
#1043=CARTESIAN_POINT('',(4.45,-0.,0.));
#1044=VERTEX_POINT('',#1043);
#1045=CARTESIAN_POINT('',(3.2,0.,0.));
#1046=DIRECTION('',(0.,0.,1.));
#1047=DIRECTION('',(1.,0.,-0.));
#1048=AXIS2_PLACEMENT_3D('',#1045,#1046,#1047);
#1049=CIRCLE('',#1048,1.25);
#1050=EDGE_CURVE('',#1044,#1036,#1049,.T.);
#1051=ORIENTED_EDGE('',*,*,#1050,.F.);
#1052=CARTESIAN_POINT('',(3.2,0.,0.));
#1053=DIRECTION('',(0.,0.,1.));
#1054=DIRECTION('',(1.,0.,-0.));
#1055=AXIS2_PLACEMENT_3D('',#1052,#1053,#1054);
#1056=CIRCLE('',#1055,1.25);
#1057=EDGE_CURVE('',#1036,#1044,#1056,.T.);
#1058=ORIENTED_EDGE('',*,*,#1057,.F.);
#1059=ORIENTED_EDGE('',*,*,#1041,.F.);
#1060=ORIENTED_EDGE('',*,*,#735,.T.);
#1061=ORIENTED_EDGE('',*,*,#742,.T.);
#1062=EDGE_LOOP('',(#1042,#1051,#1058,#1059,#1060,#1061));
#1063=FACE_BOUND('',#1062,.T.);
#1064=ADVANCED_FACE('',(#1063),#1034,.T.);
#1065=CARTESIAN_POINT('',(0.,0.,0.));
#1066=DIRECTION('',(0.,0.,1.));
#1067=DIRECTION('',(1.,0.,0.));
#1068=AXIS2_PLACEMENT_3D('',#1065,#1066,#1067);
#1069=PLANE('',#1068);
#1070=ORIENTED_EDGE('',*,*,#1050,.T.);
#1071=ORIENTED_EDGE('',*,*,#1057,.T.);
#1072=EDGE_LOOP('',(#1070,#1071));
#1073=FACE_BOUND('',#1072,.T.);
#1074=ADVANCED_FACE('',(#1073),#1069,.T.);
#1075=CARTESIAN_POINT('',(5.7,-10.1,0.));
#1076=DIRECTION('',(0.,0.,-1.));
#1077=DIRECTION('',(-1.,0.,0.));
#1078=AXIS2_PLACEMENT_3D('',#1075,#1076,#1077);
#1079=CYLINDRICAL_SURFACE('',#1078,2.);
#1080=ORIENTED_EDGE('',*,*,#786,.T.);
#1081=ORIENTED_EDGE('',*,*,#867,.F.);
#1082=ORIENTED_EDGE('',*,*,#299,.F.);
#1083=ORIENTED_EDGE('',*,*,#1011,.T.);
#1084=EDGE_LOOP('',(#1080,#1081,#1082,#1083));
#1085=FACE_BOUND('',#1084,.T.);
#1086=ADVANCED_FACE('',(#1085),#1079,.T.);
#1087=CARTESIAN_POINT('',(0.,0.,2.));
#1088=DIRECTION('',(0.,0.,1.));
#1089=DIRECTION('',(1.,0.,0.));
#1090=AXIS2_PLACEMENT_3D('',#1087,#1088,#1089);
#1091=PLANE('',#1090);
#1092=ORIENTED_EDGE('',*,*,#384,.F.);
#1093=CARTESIAN_POINT('',(15.11,10.09,2.));
#1094=DIRECTION('',(0.,0.,1.));
#1095=DIRECTION('',(1.,0.,-0.));
#1096=AXIS2_PLACEMENT_3D('',#1093,#1094,#1095);
#1097=CIRCLE('',#1096,0.01);
#1098=EDGE_CURVE('',#371,#929,#1097,.T.);
#1099=ORIENTED_EDGE('',*,*,#1098,.T.);
#1100=ORIENTED_EDGE('',*,*,#936,.T.);
#1101=CARTESIAN_POINT('',(15.11,-10.09,2.));
#1102=DIRECTION('',(0.,0.,1.));
#1103=DIRECTION('',(1.,0.,-0.));
#1104=AXIS2_PLACEMENT_3D('',#1101,#1102,#1103);
#1105=CIRCLE('',#1104,0.01);
#1106=EDGE_CURVE('',#931,#624,#1105,.T.);
#1107=ORIENTED_EDGE('',*,*,#1106,.T.);
#1108=ORIENTED_EDGE('',*,*,#629,.T.);
#1109=ORIENTED_EDGE('',*,*,#851,.F.);
#1110=EDGE_LOOP('',(#1092,#1099,#1100,#1107,#1108,#1109));
#1111=FACE_BOUND('',#1110,.T.);
#1112=ADVANCED_FACE('',(#1111),#1091,.T.);
#1113=CARTESIAN_POINT('',(15.11,-10.09,-1.5));
#1114=DIRECTION('',(0.,0.,-1.));
#1115=DIRECTION('',(-1.,0.,0.));
#1116=AXIS2_PLACEMENT_3D('',#1113,#1114,#1115);
#1117=CYLINDRICAL_SURFACE('',#1116,0.01);
#1118=ORIENTED_EDGE('',*,*,#669,.F.);
#1119=ORIENTED_EDGE('',*,*,#596,.F.);
#1120=CARTESIAN_POINT('',(15.11,-10.1,0.));
#1121=DIRECTION('',(-0.,-0.,-1.));
#1122=VECTOR('',#1121,0.607159307);
#1123=LINE('',#1120,#1122);
#1124=EDGE_CURVE('',#252,#583,#1123,.T.);
#1125=ORIENTED_EDGE('',*,*,#1124,.F.);
#1126=ORIENTED_EDGE('',*,*,#635,.F.);
#1127=ORIENTED_EDGE('',*,*,#1106,.F.);
#1128=ORIENTED_EDGE('',*,*,#949,.F.);
#1129=EDGE_LOOP('',(#1118,#1119,#1125,#1126,#1127,#1128));
#1130=FACE_BOUND('',#1129,.T.);
#1131=ADVANCED_FACE('',(#1130),#1117,.T.);
#1132=CARTESIAN_POINT('',(15.11,10.09,-1.5));
#1133=DIRECTION('',(0.,0.,-1.));
#1134=DIRECTION('',(-1.,0.,0.));
#1135=AXIS2_PLACEMENT_3D('',#1132,#1133,#1134);
#1136=CYLINDRICAL_SURFACE('',#1135,0.01);
#1137=ORIENTED_EDGE('',*,*,#1098,.F.);
#1138=ORIENTED_EDGE('',*,*,#376,.F.);
#1139=ORIENTED_EDGE('',*,*,#48,.F.);
#1140=ORIENTED_EDGE('',*,*,#429,.F.);
#1141=ORIENTED_EDGE('',*,*,#684,.F.);
#1142=ORIENTED_EDGE('',*,*,#942,.F.);
#1143=EDGE_LOOP('',(#1137,#1138,#1139,#1140,#1141,#1142));
#1144=FACE_BOUND('',#1143,.T.);
#1145=ADVANCED_FACE('',(#1144),#1136,.T.);
#1146=CARTESIAN_POINT('',(15.09,10.11,-1.5));
#1147=DIRECTION('',(0.,0.,1.));
#1148=DIRECTION('',(1.,0.,-0.));
#1149=AXIS2_PLACEMENT_3D('',#1146,#1147,#1148);
#1150=CYLINDRICAL_SURFACE('',#1149,0.01);
#1151=ORIENTED_EDGE('',*,*,#142,.F.);
#1152=ORIENTED_EDGE('',*,*,#187,.F.);
#1153=ORIENTED_EDGE('',*,*,#347,.F.);
#1154=ORIENTED_EDGE('',*,*,#452,.F.);
#1155=EDGE_LOOP('',(#1151,#1152,#1153,#1154));
#1156=FACE_BOUND('',#1155,.T.);
#1157=ADVANCED_FACE('',(#1156),#1150,.T.);
#1158=CARTESIAN_POINT('',(-17.55,-0.,-2.));
#1159=DIRECTION('',(0.,0.,-1.));
#1160=DIRECTION('',(-1.,0.,0.));
#1161=AXIS2_PLACEMENT_3D('',#1158,#1159,#1160);
#1162=CYLINDRICAL_SURFACE('',#1161,1.9);
#1163=CARTESIAN_POINT('',(-19.45,-0.,-2.));
#1164=VERTEX_POINT('',#1163);
#1165=CARTESIAN_POINT('',(-19.45,-0.,-4.));
#1166=DIRECTION('',(-0.,-0.,1.));
#1167=VECTOR('',#1166,2.);
#1168=LINE('',#1165,#1167);
#1169=EDGE_CURVE('',#486,#1164,#1168,.T.);
#1170=ORIENTED_EDGE('',*,*,#1169,.F.);
#1171=ORIENTED_EDGE('',*,*,#492,.T.);
#1172=ORIENTED_EDGE('',*,*,#1169,.T.);
#1173=CARTESIAN_POINT('',(-17.55,-0.,-2.));
#1174=DIRECTION('',(0.,0.,-1.));
#1175=DIRECTION('',(-1.,0.,0.));
#1176=AXIS2_PLACEMENT_3D('',#1173,#1174,#1175);
#1177=CIRCLE('',#1176,1.9);
#1178=EDGE_CURVE('',#1164,#1164,#1177,.T.);
#1179=ORIENTED_EDGE('',*,*,#1178,.F.);
#1180=EDGE_LOOP('',(#1170,#1171,#1172,#1179));
#1181=FACE_BOUND('',#1180,.T.);
#1182=ADVANCED_FACE('',(#1181),#1162,.F.);
#1183=CARTESIAN_POINT('',(0.,0.,-2.));
#1184=DIRECTION('',(0.,0.,-1.));
#1185=DIRECTION('',(-1.,0.,0.));
#1186=AXIS2_PLACEMENT_3D('',#1183,#1184,#1185);
#1187=PLANE('',#1186);
#1188=ORIENTED_EDGE('',*,*,#1178,.T.);
#1189=EDGE_LOOP('',(#1188));
#1190=FACE_BOUND('',#1189,.T.);
#1191=ORIENTED_EDGE('',*,*,#828,.T.);
#1192=ORIENTED_EDGE('',*,*,#835,.T.);
#1193=EDGE_LOOP('',(#1191,#1192));
#1194=FACE_BOUND('',#1193,.T.);
#1195=ADVANCED_FACE('',(#1190,#1194),#1187,.T.);
#1196=CARTESIAN_POINT('',(-16.,10.,-3.));
#1197=DIRECTION('',(0.,0.,1.));
#1198=DIRECTION('',(1.,0.,-0.));
#1199=AXIS2_PLACEMENT_3D('',#1196,#1197,#1198);
#1200=CYLINDRICAL_SURFACE('',#1199,5.);
#1201=ORIENTED_EDGE('',*,*,#570,.F.);
#1202=ORIENTED_EDGE('',*,*,#889,.F.);
#1203=ORIENTED_EDGE('',*,*,#216,.F.);
#1204=ORIENTED_EDGE('',*,*,#96,.F.);
#1205=EDGE_LOOP('',(#1201,#1202,#1203,#1204));
#1206=FACE_BOUND('',#1205,.T.);
#1207=ADVANCED_FACE('',(#1206),#1200,.T.);
#1208=CARTESIAN_POINT('',(-16.,-10.,-3.));
#1209=DIRECTION('',(0.,0.,1.));
#1210=DIRECTION('',(1.,0.,-0.));
#1211=AXIS2_PLACEMENT_3D('',#1208,#1209,#1210);
#1212=CYLINDRICAL_SURFACE('',#1211,5.);
#1213=ORIENTED_EDGE('',*,*,#555,.F.);
#1214=ORIENTED_EDGE('',*,*,#918,.F.);
#1215=ORIENTED_EDGE('',*,*,#233,.F.);
#1216=ORIENTED_EDGE('',*,*,#896,.F.);
#1217=EDGE_LOOP('',(#1213,#1214,#1215,#1216));
#1218=FACE_BOUND('',#1217,.T.);
#1219=ADVANCED_FACE('',(#1218),#1212,.T.);
#1220=CARTESIAN_POINT('',(5.7,10.1,0.));
#1221=DIRECTION('',(0.,0.,-1.));
#1222=DIRECTION('',(-1.,0.,0.));
#1223=AXIS2_PLACEMENT_3D('',#1220,#1221,#1222);
#1224=CYLINDRICAL_SURFACE('',#1223,2.);
#1225=ORIENTED_EDGE('',*,*,#753,.T.);
#1226=ORIENTED_EDGE('',*,*,#461,.F.);
#1227=ORIENTED_EDGE('',*,*,#332,.F.);
#1228=ORIENTED_EDGE('',*,*,#963,.T.);
#1229=EDGE_LOOP('',(#1225,#1226,#1227,#1228));
#1230=FACE_BOUND('',#1229,.T.);
#1231=ADVANCED_FACE('',(#1230),#1224,.T.);
#1232=CARTESIAN_POINT('',(14.787869465,-10.1,-0.929289322));
#1233=DIRECTION('',(0.707106211,0.,-0.707107352));
#1234=DIRECTION('',(-0.707107352,0.,-0.707106211));
#1235=AXIS2_PLACEMENT_3D('',#1232,#1233,#1234);
#1236=PLANE('',#1235);
#1237=ORIENTED_EDGE('',*,*,#709,.F.);
#1238=CARTESIAN_POINT('',(15.1,-10.1,-0.617159291));
#1239=VERTEX_POINT('',#1238);
#1240=CARTESIAN_POINT('',(15.1,-10.1,-0.617159291));
#1241=DIRECTION('',(0.,-1.,0.));
#1242=VECTOR('',#1241,0.01);
#1243=LINE('',#1240,#1242);
#1244=EDGE_CURVE('',#1239,#695,#1243,.T.);
#1245=ORIENTED_EDGE('',*,*,#1244,.F.);
#1246=CARTESIAN_POINT('',(15.1,-10.1,-0.617159291));
#1247=DIRECTION('',(0.707107352,0.,0.707106211));
#1248=VECTOR('',#1247,0.014142124);
#1249=LINE('',#1246,#1248);
#1250=EDGE_CURVE('',#1239,#583,#1249,.T.);
#1251=ORIENTED_EDGE('',*,*,#1250,.T.);
#1252=ORIENTED_EDGE('',*,*,#588,.T.);
#1253=ORIENTED_EDGE('',*,*,#249,.T.);
#1254=ORIENTED_EDGE('',*,*,#911,.F.);
#1255=ORIENTED_EDGE('',*,*,#538,.F.);
#1256=ORIENTED_EDGE('',*,*,#610,.T.);
#1257=ORIENTED_EDGE('',*,*,#997,.T.);
#1258=EDGE_LOOP('',(#1237,#1245,#1251,#1252,#1253,#1254,#1255,#1256,#1257));
#1259=FACE_BOUND('',#1258,.T.);
#1260=ADVANCED_FACE('',(#1259),#1236,.T.);
#1261=CARTESIAN_POINT('',(0.,-10.1,0.));
#1262=DIRECTION('',(0.,-1.,0.));
#1263=DIRECTION('',(0.,0.,-1.));
#1264=AXIS2_PLACEMENT_3D('',#1261,#1262,#1263);
#1265=PLANE('',#1264);
#1266=ORIENTED_EDGE('',*,*,#265,.F.);
#1267=ORIENTED_EDGE('',*,*,#1124,.T.);
#1268=ORIENTED_EDGE('',*,*,#1250,.F.);
#1269=CARTESIAN_POINT('',(15.1,-10.1,0.));
#1270=DIRECTION('',(0.,0.,-1.));
#1271=VECTOR('',#1270,0.617159291);
#1272=LINE('',#1269,#1271);
#1273=EDGE_CURVE('',#260,#1239,#1272,.T.);
#1274=ORIENTED_EDGE('',*,*,#1273,.F.);
#1275=EDGE_LOOP('',(#1266,#1267,#1268,#1274));
#1276=FACE_BOUND('',#1275,.T.);
#1277=ADVANCED_FACE('',(#1276),#1265,.F.);
#1278=CARTESIAN_POINT('',(15.1,-10.1,-0.308579645));
#1279=DIRECTION('',(-1.,0.,0.));
#1280=DIRECTION('',(0.,0.,1.));
#1281=AXIS2_PLACEMENT_3D('',#1278,#1279,#1280);
#1282=PLANE('',#1281);
#1283=ORIENTED_EDGE('',*,*,#1244,.T.);
#1284=ORIENTED_EDGE('',*,*,#700,.T.);
#1285=ORIENTED_EDGE('',*,*,#273,.F.);
#1286=ORIENTED_EDGE('',*,*,#1273,.T.);
#1287=EDGE_LOOP('',(#1283,#1284,#1285,#1286));
#1288=FACE_BOUND('',#1287,.T.);
#1289=ADVANCED_FACE('',(#1288),#1282,.T.);
#1290=CLOSED_SHELL('',(#66,#106,#169,#193,#362,#433,#479,#575,#639,#688,#720,#805,#839,#856,#878,#900,#922,#953,#975,#987,#1017,#1029,#1064,#1074,#1086,#1112,
#1131,#1145,#1157,#1182,#1195,#1207,#1219,#1231,#1260,#1277,#1289));
#1291=MANIFOLD_SOLID_BREP('Bottom',#1290);
#1292=COLOUR_RGB('',0.90196079,0.180392161,0.180392161);
#1293=FILL_AREA_STYLE_COLOUR('',#1292);
#1294=FILL_AREA_STYLE('',(#1293));
#1295=SURFACE_STYLE_FILL_AREA(#1294);
#1296=SURFACE_SIDE_STYLE('',(#1295));
#1297=SURFACE_STYLE_USAGE(.BOTH.,#1296);
#1298=PRESENTATION_STYLE_ASSIGNMENT((#1297));
#26=STYLED_ITEM('',(#1298),#1291);
#1300=CARTESIAN_POINT('',(0.,0.,0.));
#1301=DIRECTION('',(0.,0.,1.));
#1302=DIRECTION('',(1.,0.,0.));
#1303=AXIS2_PLACEMENT_3D('',#1300,#1301,#1302);
#1304=PLANE('',#1303);
#1305=CARTESIAN_POINT('',(-16.55,-0.,0.));
#1306=VERTEX_POINT('',#1305);
#1307=CARTESIAN_POINT('',(-18.55,-0.,0.));
#1308=VERTEX_POINT('',#1307);
#1309=CARTESIAN_POINT('',(-17.55,-0.,0.));
#1310=DIRECTION('',(0.,0.,1.));
#1311=DIRECTION('',(1.,0.,-0.));
#1312=AXIS2_PLACEMENT_3D('',#1309,#1310,#1311);
#1313=CIRCLE('',#1312,1.);
#1314=EDGE_CURVE('',#1306,#1308,#1313,.T.);
#1315=ORIENTED_EDGE('',*,*,#1314,.T.);
#1316=CARTESIAN_POINT('',(-17.55,-0.,0.));
#1317=DIRECTION('',(0.,0.,1.));
#1318=DIRECTION('',(1.,0.,-0.));
#1319=AXIS2_PLACEMENT_3D('',#1316,#1317,#1318);
#1320=CIRCLE('',#1319,1.);
#1321=EDGE_CURVE('',#1308,#1306,#1320,.T.);
#1322=ORIENTED_EDGE('',*,*,#1321,.T.);
#1323=EDGE_LOOP('',(#1315,#1322));
#1324=FACE_BOUND('',#1323,.T.);
#1325=CARTESIAN_POINT('',(16.0000015,10.1,0.));
#1326=VERTEX_POINT('',#1325);
#1327=CARTESIAN_POINT('',(16.0000015,15.,0.0000015));
#1328=VERTEX_POINT('',#1327);
#1329=CARTESIAN_POINT('',(16.0000015,10.1,0.0000015));
#1330=DIRECTION('',(0.,1.,0.));
#1331=VECTOR('',#1330,4.9);
#1332=LINE('',#1329,#1331);
#1333=EDGE_CURVE('',#1326,#1328,#1332,.T.);
#1334=ORIENTED_EDGE('',*,*,#1333,.F.);
#1335=CARTESIAN_POINT('',(-15.1,10.1,0.));
#1336=VERTEX_POINT('',#1335);
#1337=CARTESIAN_POINT('',(16.0000015,10.1,0.));
#1338=DIRECTION('',(-1.,0.,0.));
#1339=VECTOR('',#1338,31.1000015);
#1340=LINE('',#1337,#1339);
#1341=EDGE_CURVE('',#1326,#1336,#1340,.T.);
#1342=ORIENTED_EDGE('',*,*,#1341,.T.);
#1343=CARTESIAN_POINT('',(-15.1,-10.1,0.));
#1344=VERTEX_POINT('',#1343);
#1345=CARTESIAN_POINT('',(-15.1,10.1,0.));
#1346=DIRECTION('',(0.,-1.,0.));
#1347=VECTOR('',#1346,20.2);
#1348=LINE('',#1345,#1347);
#1349=EDGE_CURVE('',#1336,#1344,#1348,.T.);
#1350=ORIENTED_EDGE('',*,*,#1349,.T.);
#1351=CARTESIAN_POINT('',(16.,-10.1,-0.000002999));
#1352=VERTEX_POINT('',#1351);
#1353=CARTESIAN_POINT('',(-15.1,-10.1,0.));
#1354=DIRECTION('',(1.,0.,-0.));
#1355=VECTOR('',#1354,31.1);
#1356=LINE('',#1353,#1355);
#1357=EDGE_CURVE('',#1344,#1352,#1356,.T.);
#1358=ORIENTED_EDGE('',*,*,#1357,.T.);
#1359=CARTESIAN_POINT('',(16.,-15.,0.));
#1360=VERTEX_POINT('',#1359);
#1361=CARTESIAN_POINT('',(16.,-10.1,-0.000002999));
#1362=DIRECTION('',(0.,-1.,0.));
#1363=VECTOR('',#1362,4.9);
#1364=LINE('',#1361,#1363);
#1365=EDGE_CURVE('',#1352,#1360,#1364,.T.);
#1366=ORIENTED_EDGE('',*,*,#1365,.T.);
#1367=CARTESIAN_POINT('',(-16.,-15.,0.));
#1368=VERTEX_POINT('',#1367);
#1369=CARTESIAN_POINT('',(-16.,-15.,0.));
#1370=DIRECTION('',(1.,0.,-0.));
#1371=VECTOR('',#1370,32.);
#1372=LINE('',#1369,#1371);
#1373=EDGE_CURVE('',#1368,#1360,#1372,.T.);
#1374=ORIENTED_EDGE('',*,*,#1373,.F.);
#1375=CARTESIAN_POINT('',(-21.,-10.,0.));
#1376=VERTEX_POINT('',#1375);
#1377=CARTESIAN_POINT('',(-16.,-10.,0.));
#1378=DIRECTION('',(-0.,-0.,-1.));
#1379=DIRECTION('',(1.,0.,-0.));
#1380=AXIS2_PLACEMENT_3D('',#1377,#1378,#1379);
#1381=CIRCLE('',#1380,5.);
#1382=EDGE_CURVE('',#1368,#1376,#1381,.T.);
#1383=ORIENTED_EDGE('',*,*,#1382,.T.);
#1384=CARTESIAN_POINT('',(-21.,10.,0.));
#1385=VERTEX_POINT('',#1384);
#1386=CARTESIAN_POINT('',(-21.,10.,0.));
#1387=DIRECTION('',(0.,-1.,0.));
#1388=VECTOR('',#1387,20.);
#1389=LINE('',#1386,#1388);
#1390=EDGE_CURVE('',#1385,#1376,#1389,.T.);
#1391=ORIENTED_EDGE('',*,*,#1390,.F.);
#1392=CARTESIAN_POINT('',(-16.,15.,0.));
#1393=VERTEX_POINT('',#1392);
#1394=CARTESIAN_POINT('',(-16.,10.,0.));
#1395=DIRECTION('',(-0.,-0.,-1.));
#1396=DIRECTION('',(1.,0.,-0.));
#1397=AXIS2_PLACEMENT_3D('',#1394,#1395,#1396);
#1398=CIRCLE('',#1397,5.);
#1399=EDGE_CURVE('',#1385,#1393,#1398,.T.);
#1400=ORIENTED_EDGE('',*,*,#1399,.T.);
#1401=CARTESIAN_POINT('',(16.0000015,15.,0.));
#1402=DIRECTION('',(-1.,0.,0.));
#1403=VECTOR('',#1402,32.0000015);
#1404=LINE('',#1401,#1403);
#1405=EDGE_CURVE('',#1328,#1393,#1404,.T.);
#1406=ORIENTED_EDGE('',*,*,#1405,.F.);
#1407=EDGE_LOOP('',(#1334,#1342,#1350,#1358,#1366,#1374,#1383,#1391,#1400,#1406));
#1408=FACE_BOUND('',#1407,.T.);
#1409=ADVANCED_FACE('',(#1324,#1408),#1304,.F.);
#1410=CARTESIAN_POINT('',(0.,0.,8.6));
#1411=DIRECTION('',(0.,0.,1.));
#1412=DIRECTION('',(1.,0.,0.));
#1413=AXIS2_PLACEMENT_3D('',#1410,#1411,#1412);
#1414=PLANE('',#1413);
#1415=CARTESIAN_POINT('',(-13.3,-7.3,8.6));
#1416=VERTEX_POINT('',#1415);
#1417=CARTESIAN_POINT('',(6.7,-7.3,8.6));
#1418=VERTEX_POINT('',#1417);
#1419=CARTESIAN_POINT('',(-13.3,-7.3,8.6));
#1420=DIRECTION('',(1.,0.,-0.));
#1421=VECTOR('',#1420,20.);
#1422=LINE('',#1419,#1421);
#1423=EDGE_CURVE('',#1416,#1418,#1422,.T.);
#1424=ORIENTED_EDGE('',*,*,#1423,.F.);
#1425=CARTESIAN_POINT('',(-13.3,-4.3,8.6));
#1426=VERTEX_POINT('',#1425);
#1427=CARTESIAN_POINT('',(-13.3,-4.3,8.6));
#1428=DIRECTION('',(0.,-1.,0.));
#1429=VECTOR('',#1428,3.);
#1430=LINE('',#1427,#1429);
#1431=EDGE_CURVE('',#1426,#1416,#1430,.T.);
#1432=ORIENTED_EDGE('',*,*,#1431,.F.);
#1433=CARTESIAN_POINT('',(6.7,-4.3,8.6));
#1434=VERTEX_POINT('',#1433);
#1435=CARTESIAN_POINT('',(6.7,-4.3,8.6));
#1436=DIRECTION('',(-1.,0.,0.));
#1437=VECTOR('',#1436,20.);
#1438=LINE('',#1435,#1437);
#1439=EDGE_CURVE('',#1434,#1426,#1438,.T.);
#1440=ORIENTED_EDGE('',*,*,#1439,.F.);
#1441=CARTESIAN_POINT('',(6.7,-7.3,8.6));
#1442=DIRECTION('',(0.,1.,0.));
#1443=VECTOR('',#1442,3.);
#1444=LINE('',#1441,#1443);
#1445=EDGE_CURVE('',#1418,#1434,#1444,.T.);
#1446=ORIENTED_EDGE('',*,*,#1445,.F.);
#1447=EDGE_LOOP('',(#1424,#1432,#1440,#1446));
#1448=FACE_BOUND('',#1447,.T.);
#1449=CARTESIAN_POINT('',(20.,15.,8.6));
#1450=VERTEX_POINT('',#1449);
#1451=CARTESIAN_POINT('',(-16.,15.,8.6));
#1452=VERTEX_POINT('',#1451);
#1453=CARTESIAN_POINT('',(20.,15.,8.6));
#1454=DIRECTION('',(-1.,0.,0.));
#1455=VECTOR('',#1454,36.);
#1456=LINE('',#1453,#1455);
#1457=EDGE_CURVE('',#1450,#1452,#1456,.T.);
#1458=ORIENTED_EDGE('',*,*,#1457,.T.);
#1459=CARTESIAN_POINT('',(-21.,10.,8.6));
#1460=VERTEX_POINT('',#1459);
#1461=CARTESIAN_POINT('',(-16.,10.,8.6));
#1462=DIRECTION('',(0.,0.,1.));
#1463=DIRECTION('',(1.,0.,-0.));
#1464=AXIS2_PLACEMENT_3D('',#1461,#1462,#1463);
#1465=CIRCLE('',#1464,5.);
#1466=EDGE_CURVE('',#1452,#1460,#1465,.T.);
#1467=ORIENTED_EDGE('',*,*,#1466,.T.);
#1468=CARTESIAN_POINT('',(-21.,-10.,8.6));
#1469=VERTEX_POINT('',#1468);
#1470=CARTESIAN_POINT('',(-21.,10.,8.6));
#1471=DIRECTION('',(0.,-1.,0.));
#1472=VECTOR('',#1471,20.);
#1473=LINE('',#1470,#1472);
#1474=EDGE_CURVE('',#1460,#1469,#1473,.T.);
#1475=ORIENTED_EDGE('',*,*,#1474,.T.);
#1476=CARTESIAN_POINT('',(-16.,-15.,8.6));
#1477=VERTEX_POINT('',#1476);
#1478=CARTESIAN_POINT('',(-16.,-10.,8.6));
#1479=DIRECTION('',(0.,0.,1.));
#1480=DIRECTION('',(1.,0.,-0.));
#1481=AXIS2_PLACEMENT_3D('',#1478,#1479,#1480);
#1482=CIRCLE('',#1481,5.);
#1483=EDGE_CURVE('',#1469,#1477,#1482,.T.);
#1484=ORIENTED_EDGE('',*,*,#1483,.T.);
#1485=CARTESIAN_POINT('',(20.,-15.,8.6));
#1486=VERTEX_POINT('',#1485);
#1487=CARTESIAN_POINT('',(-16.,-15.,8.6));
#1488=DIRECTION('',(1.,0.,-0.));
#1489=VECTOR('',#1488,36.);
#1490=LINE('',#1487,#1489);
#1491=EDGE_CURVE('',#1477,#1486,#1490,.T.);
#1492=ORIENTED_EDGE('',*,*,#1491,.T.);
#1493=CARTESIAN_POINT('',(20.,-15.,8.6));
#1494=DIRECTION('',(0.,1.,0.));
#1495=VECTOR('',#1494,30.);
#1496=LINE('',#1493,#1495);
#1497=EDGE_CURVE('',#1486,#1450,#1496,.T.);
#1498=ORIENTED_EDGE('',*,*,#1497,.T.);
#1499=EDGE_LOOP('',(#1458,#1467,#1475,#1484,#1492,#1498));
#1500=FACE_BOUND('',#1499,.T.);
#1501=CARTESIAN_POINT('',(6.7,-1.5,8.6));
#1502=VERTEX_POINT('',#1501);
#1503=CARTESIAN_POINT('',(-13.3,-1.5,8.6));
#1504=VERTEX_POINT('',#1503);
#1505=CARTESIAN_POINT('',(6.7,-1.5,8.6));
#1506=DIRECTION('',(-1.,0.,0.));
#1507=VECTOR('',#1506,20.);
#1508=LINE('',#1505,#1507);
#1509=EDGE_CURVE('',#1502,#1504,#1508,.T.);
#1510=ORIENTED_EDGE('',*,*,#1509,.T.);
#1511=CARTESIAN_POINT('',(-13.3,1.5,8.6));
#1512=VERTEX_POINT('',#1511);
#1513=CARTESIAN_POINT('',(-13.3,-1.5,8.6));
#1514=DIRECTION('',(0.,1.,0.));
#1515=VECTOR('',#1514,3.);
#1516=LINE('',#1513,#1515);
#1517=EDGE_CURVE('',#1504,#1512,#1516,.T.);
#1518=ORIENTED_EDGE('',*,*,#1517,.T.);
#1519=CARTESIAN_POINT('',(6.7,1.5,8.6));
#1520=VERTEX_POINT('',#1519);
#1521=CARTESIAN_POINT('',(-13.3,1.5,8.6));
#1522=DIRECTION('',(1.,0.,-0.));
#1523=VECTOR('',#1522,20.);
#1524=LINE('',#1521,#1523);
#1525=EDGE_CURVE('',#1512,#1520,#1524,.T.);
#1526=ORIENTED_EDGE('',*,*,#1525,.T.);
#1527=CARTESIAN_POINT('',(6.7,1.5,8.6));
#1528=DIRECTION('',(0.,-1.,0.));
#1529=VECTOR('',#1528,3.);
#1530=LINE('',#1527,#1529);
#1531=EDGE_CURVE('',#1520,#1502,#1530,.T.);
#1532=ORIENTED_EDGE('',*,*,#1531,.T.);
#1533=EDGE_LOOP('',(#1510,#1518,#1526,#1532));
#1534=FACE_BOUND('',#1533,.T.);
#1535=CARTESIAN_POINT('',(6.7,4.3,8.6));
#1536=VERTEX_POINT('',#1535);
#1537=CARTESIAN_POINT('',(-13.3,4.3,8.6));
#1538=VERTEX_POINT('',#1537);
#1539=CARTESIAN_POINT('',(6.7,4.3,8.6));
#1540=DIRECTION('',(-1.,0.,0.));
#1541=VECTOR('',#1540,20.);
#1542=LINE('',#1539,#1541);
#1543=EDGE_CURVE('',#1536,#1538,#1542,.T.);
#1544=ORIENTED_EDGE('',*,*,#1543,.T.);
#1545=CARTESIAN_POINT('',(-13.3,7.3,8.6));
#1546=VERTEX_POINT('',#1545);
#1547=CARTESIAN_POINT('',(-13.3,4.3,8.6));
#1548=DIRECTION('',(0.,1.,0.));
#1549=VECTOR('',#1548,3.);
#1550=LINE('',#1547,#1549);
#1551=EDGE_CURVE('',#1538,#1546,#1550,.T.);
#1552=ORIENTED_EDGE('',*,*,#1551,.T.);
#1553=CARTESIAN_POINT('',(6.7,7.3,8.6));
#1554=VERTEX_POINT('',#1553);
#1555=CARTESIAN_POINT('',(-13.3,7.3,8.6));
#1556=DIRECTION('',(1.,0.,-0.));
#1557=VECTOR('',#1556,20.);
#1558=LINE('',#1555,#1557);
#1559=EDGE_CURVE('',#1546,#1554,#1558,.T.);
#1560=ORIENTED_EDGE('',*,*,#1559,.T.);
#1561=CARTESIAN_POINT('',(6.7,7.3,8.6));
#1562=DIRECTION('',(0.,-1.,0.));
#1563=VECTOR('',#1562,3.);
#1564=LINE('',#1561,#1563);
#1565=EDGE_CURVE('',#1554,#1536,#1564,.T.);
#1566=ORIENTED_EDGE('',*,*,#1565,.T.);
#1567=EDGE_LOOP('',(#1544,#1552,#1560,#1566));
#1568=FACE_BOUND('',#1567,.T.);
#1569=ADVANCED_FACE('',(#1448,#1500,#1534,#1568),#1414,.T.);
#1570=CARTESIAN_POINT('',(0.,0.,6.1));
#1571=DIRECTION('',(0.,0.,1.));
#1572=DIRECTION('',(1.,0.,0.));
#1573=AXIS2_PLACEMENT_3D('',#1570,#1571,#1572);
#1574=PLANE('',#1573);
#1575=CARTESIAN_POINT('',(-13.3,-7.3,6.1));
#1576=VERTEX_POINT('',#1575);
#1577=CARTESIAN_POINT('',(-13.3,-4.3,6.1));
#1578=VERTEX_POINT('',#1577);
#1579=CARTESIAN_POINT('',(-13.3,-7.3,6.1));
#1580=DIRECTION('',(0.,1.,0.));
#1581=VECTOR('',#1580,3.);
#1582=LINE('',#1579,#1581);
#1583=EDGE_CURVE('',#1576,#1578,#1582,.T.);
#1584=ORIENTED_EDGE('',*,*,#1583,.F.);
#1585=CARTESIAN_POINT('',(6.7,-7.3,6.1));
#1586=VERTEX_POINT('',#1585);
#1587=CARTESIAN_POINT('',(6.7,-7.3,6.1));
#1588=DIRECTION('',(-1.,0.,0.));
#1589=VECTOR('',#1588,20.);
#1590=LINE('',#1587,#1589);
#1591=EDGE_CURVE('',#1586,#1576,#1590,.T.);
#1592=ORIENTED_EDGE('',*,*,#1591,.F.);
#1593=CARTESIAN_POINT('',(6.7,-4.3,6.1));
#1594=VERTEX_POINT('',#1593);
#1595=CARTESIAN_POINT('',(6.7,-4.3,6.1));
#1596=DIRECTION('',(0.,-1.,0.));
#1597=VECTOR('',#1596,3.);
#1598=LINE('',#1595,#1597);
#1599=EDGE_CURVE('',#1594,#1586,#1598,.T.);
#1600=ORIENTED_EDGE('',*,*,#1599,.F.);
#1601=CARTESIAN_POINT('',(-13.3,-4.3,6.1));
#1602=DIRECTION('',(1.,0.,-0.));
#1603=VECTOR('',#1602,20.);
#1604=LINE('',#1601,#1603);
#1605=EDGE_CURVE('',#1578,#1594,#1604,.T.);
#1606=ORIENTED_EDGE('',*,*,#1605,.F.);
#1607=EDGE_LOOP('',(#1584,#1592,#1600,#1606));
#1608=FACE_BOUND('',#1607,.T.);
#1609=CARTESIAN_POINT('',(-13.3,1.5,6.1));
#1610=VERTEX_POINT('',#1609);
#1611=CARTESIAN_POINT('',(-13.3,-1.5,6.1));
#1612=VERTEX_POINT('',#1611);
#1613=CARTESIAN_POINT('',(-13.3,1.5,6.1));
#1614=DIRECTION('',(0.,-1.,0.));
#1615=VECTOR('',#1614,3.);
#1616=LINE('',#1613,#1615);
#1617=EDGE_CURVE('',#1610,#1612,#1616,.T.);
#1618=ORIENTED_EDGE('',*,*,#1617,.T.);
#1619=CARTESIAN_POINT('',(6.7,-1.5,6.1));
#1620=VERTEX_POINT('',#1619);
#1621=CARTESIAN_POINT('',(-13.3,-1.5,6.1));
#1622=DIRECTION('',(1.,0.,-0.));
#1623=VECTOR('',#1622,20.);
#1624=LINE('',#1621,#1623);
#1625=EDGE_CURVE('',#1612,#1620,#1624,.T.);
#1626=ORIENTED_EDGE('',*,*,#1625,.T.);
#1627=CARTESIAN_POINT('',(6.7,1.5,6.1));
#1628=VERTEX_POINT('',#1627);
#1629=CARTESIAN_POINT('',(6.7,-1.5,6.1));
#1630=DIRECTION('',(0.,1.,0.));
#1631=VECTOR('',#1630,3.);
#1632=LINE('',#1629,#1631);
#1633=EDGE_CURVE('',#1620,#1628,#1632,.T.);
#1634=ORIENTED_EDGE('',*,*,#1633,.T.);
#1635=CARTESIAN_POINT('',(6.7,1.5,6.1));
#1636=DIRECTION('',(-1.,0.,0.));
#1637=VECTOR('',#1636,20.);
#1638=LINE('',#1635,#1637);
#1639=EDGE_CURVE('',#1628,#1610,#1638,.T.);
#1640=ORIENTED_EDGE('',*,*,#1639,.T.);
#1641=EDGE_LOOP('',(#1618,#1626,#1634,#1640));
#1642=FACE_BOUND('',#1641,.T.);
#1643=CARTESIAN_POINT('',(10.,10.1,6.1));
#1644=VERTEX_POINT('',#1643);
#1645=CARTESIAN_POINT('',(-15.1,10.1,6.1));
#1646=VERTEX_POINT('',#1645);
#1647=CARTESIAN_POINT('',(10.,10.1,6.1));
#1648=DIRECTION('',(-1.,0.,0.));
#1649=VECTOR('',#1648,25.1);
#1650=LINE('',#1647,#1649);
#1651=EDGE_CURVE('',#1644,#1646,#1650,.T.);
#1652=ORIENTED_EDGE('',*,*,#1651,.F.);
#1653=CARTESIAN_POINT('',(10.,-10.1,6.1));
#1654=VERTEX_POINT('',#1653);
#1655=CARTESIAN_POINT('',(10.,10.1,6.1));
#1656=DIRECTION('',(-0.,-1.,0.));
#1657=VECTOR('',#1656,20.2);
#1658=LINE('',#1655,#1657);
#1659=EDGE_CURVE('',#1644,#1654,#1658,.T.);
#1660=ORIENTED_EDGE('',*,*,#1659,.T.);
#1661=CARTESIAN_POINT('',(-15.1,-10.1,6.1));
#1662=VERTEX_POINT('',#1661);
#1663=CARTESIAN_POINT('',(-15.1,-10.1,6.1));
#1664=DIRECTION('',(1.,0.,-0.));
#1665=VECTOR('',#1664,25.1);
#1666=LINE('',#1663,#1665);
#1667=EDGE_CURVE('',#1662,#1654,#1666,.T.);
#1668=ORIENTED_EDGE('',*,*,#1667,.F.);
#1669=CARTESIAN_POINT('',(-15.1,10.1,6.1));
#1670=DIRECTION('',(0.,-1.,0.));
#1671=VECTOR('',#1670,20.2);
#1672=LINE('',#1669,#1671);
#1673=EDGE_CURVE('',#1646,#1662,#1672,.T.);
#1674=ORIENTED_EDGE('',*,*,#1673,.F.);
#1675=EDGE_LOOP('',(#1652,#1660,#1668,#1674));
#1676=FACE_BOUND('',#1675,.T.);
#1677=CARTESIAN_POINT('',(-13.3,7.3,6.1));
#1678=VERTEX_POINT('',#1677);
#1679=CARTESIAN_POINT('',(-13.3,4.3,6.1));
#1680=VERTEX_POINT('',#1679);
#1681=CARTESIAN_POINT('',(-13.3,7.3,6.1));
#1682=DIRECTION('',(0.,-1.,0.));
#1683=VECTOR('',#1682,3.);
#1684=LINE('',#1681,#1683);
#1685=EDGE_CURVE('',#1678,#1680,#1684,.T.);
#1686=ORIENTED_EDGE('',*,*,#1685,.T.);
#1687=CARTESIAN_POINT('',(6.7,4.3,6.1));
#1688=VERTEX_POINT('',#1687);
#1689=CARTESIAN_POINT('',(-13.3,4.3,6.1));
#1690=DIRECTION('',(1.,0.,-0.));
#1691=VECTOR('',#1690,20.);
#1692=LINE('',#1689,#1691);
#1693=EDGE_CURVE('',#1680,#1688,#1692,.T.);
#1694=ORIENTED_EDGE('',*,*,#1693,.T.);
#1695=CARTESIAN_POINT('',(6.7,7.3,6.1));
#1696=VERTEX_POINT('',#1695);
#1697=CARTESIAN_POINT('',(6.7,4.3,6.1));
#1698=DIRECTION('',(0.,1.,0.));
#1699=VECTOR('',#1698,3.);
#1700=LINE('',#1697,#1699);
#1701=EDGE_CURVE('',#1688,#1696,#1700,.T.);
#1702=ORIENTED_EDGE('',*,*,#1701,.T.);
#1703=CARTESIAN_POINT('',(6.7,7.3,6.1));
#1704=DIRECTION('',(-1.,0.,0.));
#1705=VECTOR('',#1704,20.);
#1706=LINE('',#1703,#1705);
#1707=EDGE_CURVE('',#1696,#1678,#1706,.T.);
#1708=ORIENTED_EDGE('',*,*,#1707,.T.);
#1709=EDGE_LOOP('',(#1686,#1694,#1702,#1708));
#1710=FACE_BOUND('',#1709,.T.);
#1711=ADVANCED_FACE('',(#1608,#1642,#1676,#1710),#1574,.F.);
#1712=CARTESIAN_POINT('',(20.,0.,8.6));
#1713=DIRECTION('',(-1.,0.,0.));
#1714=DIRECTION('',(0.,0.,1.));
#1715=AXIS2_PLACEMENT_3D('',#1712,#1713,#1714);
#1716=PLANE('',#1715);
#1717=CARTESIAN_POINT('',(20.,-10.1,7.1));
#1718=VERTEX_POINT('',#1717);
#1719=CARTESIAN_POINT('',(20.,10.1,7.1));
#1720=VERTEX_POINT('',#1719);
#1721=CARTESIAN_POINT('',(20.,-10.1,7.1));
#1722=DIRECTION('',(0.,1.,0.));
#1723=VECTOR('',#1722,20.2);
#1724=LINE('',#1721,#1723);
#1725=EDGE_CURVE('',#1718,#1720,#1724,.T.);
#1726=ORIENTED_EDGE('',*,*,#1725,.T.);
#1727=CARTESIAN_POINT('',(20.0000015,10.1,-4.000011281));
#1728=VERTEX_POINT('',#1727);
#1729=CARTESIAN_POINT('',(20.,10.1,7.1));
#1730=DIRECTION('',(0.,0.,-1.));
#1731=VECTOR('',#1730,11.100011281);
#1732=LINE('',#1729,#1731);
#1733=EDGE_CURVE('',#1720,#1728,#1732,.T.);
#1734=ORIENTED_EDGE('',*,*,#1733,.T.);
#1735=CARTESIAN_POINT('',(20.0000015,15.,-4.000018063));
#1736=VERTEX_POINT('',#1735);
#1737=CARTESIAN_POINT('',(20.,10.1,-4.000018063));
#1738=DIRECTION('',(0.,1.,0.));
#1739=VECTOR('',#1738,4.9);
#1740=LINE('',#1737,#1739);
#1741=EDGE_CURVE('',#1728,#1736,#1740,.T.);
#1742=ORIENTED_EDGE('',*,*,#1741,.T.);
#1743=CARTESIAN_POINT('',(20.,15.,8.6));
#1744=DIRECTION('',(0.,0.,-1.));
#1745=VECTOR('',#1744,12.600018063);
#1746=LINE('',#1743,#1745);
#1747=EDGE_CURVE('',#1450,#1736,#1746,.T.);
#1748=ORIENTED_EDGE('',*,*,#1747,.F.);
#1749=ORIENTED_EDGE('',*,*,#1497,.F.);
#1750=CARTESIAN_POINT('',(20.000003376,-15.,-4.000018497));
#1751=VERTEX_POINT('',#1750);
#1752=CARTESIAN_POINT('',(20.,-15.,8.6));
#1753=DIRECTION('',(0.,0.,-1.));
#1754=VECTOR('',#1753,12.600018497);
#1755=LINE('',#1752,#1754);
#1756=EDGE_CURVE('',#1486,#1751,#1755,.T.);
#1757=ORIENTED_EDGE('',*,*,#1756,.T.);
#1758=CARTESIAN_POINT('',(20.000003376,-10.1,-4.000011309));
#1759=VERTEX_POINT('',#1758);
#1760=CARTESIAN_POINT('',(20.,-10.1,-4.000018497));
#1761=DIRECTION('',(-0.,-1.,-0.));
#1762=VECTOR('',#1761,4.9);
#1763=LINE('',#1760,#1762);
#1764=EDGE_CURVE('',#1759,#1751,#1763,.T.);
#1765=ORIENTED_EDGE('',*,*,#1764,.F.);
#1766=CARTESIAN_POINT('',(20.,-10.1,7.1));
#1767=DIRECTION('',(0.,0.,-1.));
#1768=VECTOR('',#1767,11.100011309);
#1769=LINE('',#1766,#1768);
#1770=EDGE_CURVE('',#1718,#1759,#1769,.T.);
#1771=ORIENTED_EDGE('',*,*,#1770,.F.);
#1772=EDGE_LOOP('',(#1726,#1734,#1742,#1748,#1749,#1757,#1765,#1771));
#1773=FACE_BOUND('',#1772,.T.);
#1774=ADVANCED_FACE('',(#1773),#1716,.F.);
#1775=CARTESIAN_POINT('',(0.,-15.,8.6));
#1776=DIRECTION('',(0.,1.,0.));
#1777=DIRECTION('',(0.,0.,1.));
#1778=AXIS2_PLACEMENT_3D('',#1775,#1776,#1777);
#1779=PLANE('',#1778);
#1780=ORIENTED_EDGE('',*,*,#1491,.F.);
#1781=CARTESIAN_POINT('',(-16.,-15.,8.6));
#1782=DIRECTION('',(0.,0.,-1.));
#1783=VECTOR('',#1782,8.6);
#1784=LINE('',#1781,#1783);
#1785=EDGE_CURVE('',#1477,#1368,#1784,.T.);
#1786=ORIENTED_EDGE('',*,*,#1785,.T.);
#1787=ORIENTED_EDGE('',*,*,#1373,.T.);
#1788=CARTESIAN_POINT('',(12.,-15.,-4.000002999));
#1789=VERTEX_POINT('',#1788);
#1790=CARTESIAN_POINT('',(16.0000015,-15.,-0.0000015));
#1791=DIRECTION('',(-0.707106781,0.,-0.707106781));
#1792=VECTOR('',#1791,5.65685637);
#1793=LINE('',#1790,#1792);
#1794=EDGE_CURVE('',#1360,#1789,#1793,.T.);
#1795=ORIENTED_EDGE('',*,*,#1794,.T.);
#1796=CARTESIAN_POINT('',(19.999999566,-15.,-4.000004122));
#1797=DIRECTION('',(-1.,0.,0.000000375));
#1798=VECTOR('',#1797,8.);
#1799=LINE('',#1796,#1798);
#1800=EDGE_CURVE('',#1751,#1789,#1799,.T.);
#1801=ORIENTED_EDGE('',*,*,#1800,.F.);
#1802=ORIENTED_EDGE('',*,*,#1756,.F.);
#1803=EDGE_LOOP('',(#1780,#1786,#1787,#1795,#1801,#1802));
#1804=FACE_BOUND('',#1803,.T.);
#1805=ADVANCED_FACE('',(#1804),#1779,.F.);
#1806=CARTESIAN_POINT('',(0.,15.,8.6));
#1807=DIRECTION('',(0.,-1.,0.));
#1808=DIRECTION('',(0.,0.,-1.));
#1809=AXIS2_PLACEMENT_3D('',#1806,#1807,#1808);
#1810=PLANE('',#1809);
#1811=ORIENTED_EDGE('',*,*,#1747,.T.);
#1812=CARTESIAN_POINT('',(11.9999985,15.,-4.0000015));
#1813=VERTEX_POINT('',#1812);
#1814=CARTESIAN_POINT('',(19.9999985,15.,-4.000004499));
#1815=DIRECTION('',(-1.,0.,0.000000375));
#1816=VECTOR('',#1815,8.);
#1817=LINE('',#1814,#1816);
#1818=EDGE_CURVE('',#1736,#1813,#1817,.T.);
#1819=ORIENTED_EDGE('',*,*,#1818,.T.);
#1820=CARTESIAN_POINT('',(16.0000015,15.,0.0000015));
#1821=DIRECTION('',(-0.707106781,0.,-0.707106781));
#1822=VECTOR('',#1821,5.656858491);
#1823=LINE('',#1820,#1822);
#1824=EDGE_CURVE('',#1328,#1813,#1823,.T.);
#1825=ORIENTED_EDGE('',*,*,#1824,.F.);
#1826=ORIENTED_EDGE('',*,*,#1405,.T.);
#1827=CARTESIAN_POINT('',(-16.,15.,0.));
#1828=DIRECTION('',(-0.,-0.,1.));
#1829=VECTOR('',#1828,8.6);
#1830=LINE('',#1827,#1829);
#1831=EDGE_CURVE('',#1393,#1452,#1830,.T.);
#1832=ORIENTED_EDGE('',*,*,#1831,.T.);
#1833=ORIENTED_EDGE('',*,*,#1457,.F.);
#1834=EDGE_LOOP('',(#1811,#1819,#1825,#1826,#1832,#1833));
#1835=FACE_BOUND('',#1834,.T.);
#1836=ADVANCED_FACE('',(#1835),#1810,.F.);
#1837=CARTESIAN_POINT('',(-21.,0.,8.6));
#1838=DIRECTION('',(1.,0.,0.));
#1839=DIRECTION('',(0.,0.,-1.));
#1840=AXIS2_PLACEMENT_3D('',#1837,#1838,#1839);
#1841=PLANE('',#1840);
#1842=ORIENTED_EDGE('',*,*,#1474,.F.);
#1843=CARTESIAN_POINT('',(-21.,10.,8.6));
#1844=DIRECTION('',(0.,0.,-1.));
#1845=VECTOR('',#1844,8.6);
#1846=LINE('',#1843,#1845);
#1847=EDGE_CURVE('',#1460,#1385,#1846,.T.);
#1848=ORIENTED_EDGE('',*,*,#1847,.T.);
#1849=ORIENTED_EDGE('',*,*,#1390,.T.);
#1850=CARTESIAN_POINT('',(-21.,-10.,0.));
#1851=DIRECTION('',(-0.,-0.,1.));
#1852=VECTOR('',#1851,8.6);
#1853=LINE('',#1850,#1852);
#1854=EDGE_CURVE('',#1376,#1469,#1853,.T.);
#1855=ORIENTED_EDGE('',*,*,#1854,.T.);
#1856=EDGE_LOOP('',(#1842,#1848,#1849,#1855));
#1857=FACE_BOUND('',#1856,.T.);
#1858=ADVANCED_FACE('',(#1857),#1841,.F.);
#1859=CARTESIAN_POINT('',(-0.,-10.1,4.6));
#1860=DIRECTION('',(0.,1.,0.));
#1861=DIRECTION('',(0.,0.,1.));
#1862=AXIS2_PLACEMENT_3D('',#1859,#1860,#1861);
#1863=PLANE('',#1862);
#1864=ORIENTED_EDGE('',*,*,#1357,.F.);
#1865=CARTESIAN_POINT('',(-15.1,-10.1,6.1));
#1866=DIRECTION('',(0.,0.,-1.));
#1867=VECTOR('',#1866,6.1);
#1868=LINE('',#1865,#1867);
#1869=EDGE_CURVE('',#1662,#1344,#1868,.T.);
#1870=ORIENTED_EDGE('',*,*,#1869,.F.);
#1871=ORIENTED_EDGE('',*,*,#1667,.T.);
#1872=CARTESIAN_POINT('',(11.,-10.1,7.1));
#1873=VERTEX_POINT('',#1872);
#1874=CARTESIAN_POINT('',(10.,-10.1,6.1));
#1875=DIRECTION('',(0.707106781,0.,0.707106781));
#1876=VECTOR('',#1875,1.414213562);
#1877=LINE('',#1874,#1876);
#1878=EDGE_CURVE('',#1654,#1873,#1877,.T.);
#1879=ORIENTED_EDGE('',*,*,#1878,.T.);
#1880=CARTESIAN_POINT('',(20.,-10.1,7.1));
#1881=DIRECTION('',(-1.,0.,0.));
#1882=VECTOR('',#1881,9.);
#1883=LINE('',#1880,#1882);
#1884=EDGE_CURVE('',#1718,#1873,#1883,.T.);
#1885=ORIENTED_EDGE('',*,*,#1884,.F.);
#1886=ORIENTED_EDGE('',*,*,#1770,.T.);
#1887=CARTESIAN_POINT('',(12.,-10.1,-4.000002999));
#1888=VERTEX_POINT('',#1887);
#1889=CARTESIAN_POINT('',(20.000003376,-10.1,-4.000004122));
#1890=DIRECTION('',(-1.,0.,0.000000375));
#1891=VECTOR('',#1890,8.000003376);
#1892=LINE('',#1889,#1891);
#1893=EDGE_CURVE('',#1759,#1888,#1892,.T.);
#1894=ORIENTED_EDGE('',*,*,#1893,.T.);
#1895=CARTESIAN_POINT('',(16.,-10.1,-0.000002999));
#1896=DIRECTION('',(-0.707106781,0.,-0.707106781));
#1897=VECTOR('',#1896,5.65685425);
#1898=LINE('',#1895,#1897);
#1899=EDGE_CURVE('',#1352,#1888,#1898,.T.);
#1900=ORIENTED_EDGE('',*,*,#1899,.F.);
#1901=EDGE_LOOP('',(#1864,#1870,#1871,#1879,#1885,#1886,#1894,#1900));
#1902=FACE_BOUND('',#1901,.T.);
#1903=ADVANCED_FACE('',(#1902),#1863,.T.);
#1904=CARTESIAN_POINT('',(-15.1,0.,4.6));
#1905=DIRECTION('',(1.,0.,0.));
#1906=DIRECTION('',(0.,0.,-1.));
#1907=AXIS2_PLACEMENT_3D('',#1904,#1905,#1906);
#1908=PLANE('',#1907);
#1909=ORIENTED_EDGE('',*,*,#1349,.F.);
#1910=CARTESIAN_POINT('',(-15.1,10.1,6.1));
#1911=DIRECTION('',(0.,0.,-1.));
#1912=VECTOR('',#1911,6.1);
#1913=LINE('',#1910,#1912);
#1914=EDGE_CURVE('',#1646,#1336,#1913,.T.);
#1915=ORIENTED_EDGE('',*,*,#1914,.F.);
#1916=ORIENTED_EDGE('',*,*,#1673,.T.);
#1917=ORIENTED_EDGE('',*,*,#1869,.T.);
#1918=EDGE_LOOP('',(#1909,#1915,#1916,#1917));
#1919=FACE_BOUND('',#1918,.T.);
#1920=ADVANCED_FACE('',(#1919),#1908,.T.);
#1921=CARTESIAN_POINT('',(0.,10.1,4.6));
#1922=DIRECTION('',(0.,-1.,0.));
#1923=DIRECTION('',(0.,0.,-1.));
#1924=AXIS2_PLACEMENT_3D('',#1921,#1922,#1923);
#1925=PLANE('',#1924);
#1926=ORIENTED_EDGE('',*,*,#1341,.F.);
#1927=CARTESIAN_POINT('',(11.9999985,10.1,-4.0000015));
#1928=VERTEX_POINT('',#1927);
#1929=CARTESIAN_POINT('',(11.9999985,10.1,-4.0000015));
#1930=DIRECTION('',(0.707106781,0.,0.707106781));
#1931=VECTOR('',#1930,5.656857431);
#1932=LINE('',#1929,#1931);
#1933=EDGE_CURVE('',#1928,#1326,#1932,.T.);
#1934=ORIENTED_EDGE('',*,*,#1933,.F.);
#1935=CARTESIAN_POINT('',(11.9999985,10.1,-4.0000015));
#1936=DIRECTION('',(1.,0.,-0.000000375));
#1937=VECTOR('',#1936,8.000002999);
#1938=LINE('',#1935,#1937);
#1939=EDGE_CURVE('',#1928,#1728,#1938,.T.);
#1940=ORIENTED_EDGE('',*,*,#1939,.T.);
#1941=ORIENTED_EDGE('',*,*,#1733,.F.);
#1942=CARTESIAN_POINT('',(11.,10.1,7.1));
#1943=VERTEX_POINT('',#1942);
#1944=CARTESIAN_POINT('',(20.,10.1,7.1));
#1945=DIRECTION('',(-1.,0.,0.));
#1946=VECTOR('',#1945,9.);
#1947=LINE('',#1944,#1946);
#1948=EDGE_CURVE('',#1720,#1943,#1947,.T.);
#1949=ORIENTED_EDGE('',*,*,#1948,.T.);
#1950=CARTESIAN_POINT('',(11.,10.1,7.1));
#1951=DIRECTION('',(-0.707106781,0.,-0.707106781));
#1952=VECTOR('',#1951,1.414213562);
#1953=LINE('',#1950,#1952);
#1954=EDGE_CURVE('',#1943,#1644,#1953,.T.);
#1955=ORIENTED_EDGE('',*,*,#1954,.T.);
#1956=ORIENTED_EDGE('',*,*,#1651,.T.);
#1957=ORIENTED_EDGE('',*,*,#1914,.T.);
#1958=EDGE_LOOP('',(#1926,#1934,#1940,#1941,#1949,#1955,#1956,#1957));
#1959=FACE_BOUND('',#1958,.T.);
#1960=ADVANCED_FACE('',(#1959),#1925,.T.);
#1961=CARTESIAN_POINT('',(0.,0.,7.1));
#1962=DIRECTION('',(0.,0.,-1.));
#1963=DIRECTION('',(-1.,0.,0.));
#1964=AXIS2_PLACEMENT_3D('',#1961,#1962,#1963);
#1965=PLANE('',#1964);
#1966=ORIENTED_EDGE('',*,*,#1948,.F.);
#1967=ORIENTED_EDGE('',*,*,#1725,.F.);
#1968=ORIENTED_EDGE('',*,*,#1884,.T.);
#1969=CARTESIAN_POINT('',(11.,10.1,7.1));
#1970=DIRECTION('',(-0.,-1.,0.));
#1971=VECTOR('',#1970,20.2);
#1972=LINE('',#1969,#1971);
#1973=EDGE_CURVE('',#1943,#1873,#1972,.T.);
#1974=ORIENTED_EDGE('',*,*,#1973,.F.);
#1975=EDGE_LOOP('',(#1966,#1967,#1968,#1974));
#1976=FACE_BOUND('',#1975,.T.);
#1977=ADVANCED_FACE('',(#1976),#1965,.T.);
#1978=CARTESIAN_POINT('',(8.5,-0.,4.6));
#1979=DIRECTION('',(0.707106781,-0.,-0.707106781));
#1980=DIRECTION('',(0.,1.,0.));
#1981=AXIS2_PLACEMENT_3D('',#1978,#1979,#1980);
#1982=PLANE('',#1981);
#1983=ORIENTED_EDGE('',*,*,#1954,.F.);
#1984=ORIENTED_EDGE('',*,*,#1973,.T.);
#1985=ORIENTED_EDGE('',*,*,#1878,.F.);
#1986=ORIENTED_EDGE('',*,*,#1659,.F.);
#1987=EDGE_LOOP('',(#1983,#1984,#1985,#1986));
#1988=FACE_BOUND('',#1987,.T.);
#1989=ADVANCED_FACE('',(#1988),#1982,.T.);
#1990=CARTESIAN_POINT('',(-13.3,0.,173.6));
#1991=DIRECTION('',(1.,0.,0.));
#1992=DIRECTION('',(0.,0.,-1.));
#1993=AXIS2_PLACEMENT_3D('',#1990,#1991,#1992);
#1994=PLANE('',#1993);
#1995=CARTESIAN_POINT('',(-13.3,-1.5,8.6));
#1996=DIRECTION('',(0.,0.,-1.));
#1997=VECTOR('',#1996,2.5);
#1998=LINE('',#1995,#1997);
#1999=EDGE_CURVE('',#1504,#1612,#1998,.T.);
#2000=ORIENTED_EDGE('',*,*,#1999,.T.);
#2001=ORIENTED_EDGE('',*,*,#1617,.F.);
#2002=CARTESIAN_POINT('',(-13.3,1.5,8.6));
#2003=DIRECTION('',(0.,0.,-1.));
#2004=VECTOR('',#2003,2.5);
#2005=LINE('',#2002,#2004);
#2006=EDGE_CURVE('',#1512,#1610,#2005,.T.);
#2007=ORIENTED_EDGE('',*,*,#2006,.F.);
#2008=ORIENTED_EDGE('',*,*,#1517,.F.);
#2009=EDGE_LOOP('',(#2000,#2001,#2007,#2008));
#2010=FACE_BOUND('',#2009,.T.);
#2011=ADVANCED_FACE('',(#2010),#1994,.T.);
#2012=CARTESIAN_POINT('',(-3.3,1.5,173.6));
#2013=DIRECTION('',(0.,-1.,0.));
#2014=DIRECTION('',(0.,0.,-1.));
#2015=AXIS2_PLACEMENT_3D('',#2012,#2013,#2014);
#2016=PLANE('',#2015);
#2017=ORIENTED_EDGE('',*,*,#2006,.T.);
#2018=ORIENTED_EDGE('',*,*,#1639,.F.);
#2019=CARTESIAN_POINT('',(6.7,1.5,8.6));
#2020=DIRECTION('',(0.,0.,-1.));
#2021=VECTOR('',#2020,2.5);
#2022=LINE('',#2019,#2021);
#2023=EDGE_CURVE('',#1520,#1628,#2022,.T.);
#2024=ORIENTED_EDGE('',*,*,#2023,.F.);
#2025=ORIENTED_EDGE('',*,*,#1525,.F.);
#2026=EDGE_LOOP('',(#2017,#2018,#2024,#2025));
#2027=FACE_BOUND('',#2026,.T.);
#2028=ADVANCED_FACE('',(#2027),#2016,.T.);
#2029=CARTESIAN_POINT('',(6.7,0.,173.6));
#2030=DIRECTION('',(-1.,0.,0.));
#2031=DIRECTION('',(0.,0.,1.));
#2032=AXIS2_PLACEMENT_3D('',#2029,#2030,#2031);
#2033=PLANE('',#2032);
#2034=ORIENTED_EDGE('',*,*,#2023,.T.);
#2035=ORIENTED_EDGE('',*,*,#1633,.F.);
#2036=CARTESIAN_POINT('',(6.7,-1.5,8.6));
#2037=DIRECTION('',(0.,0.,-1.));
#2038=VECTOR('',#2037,2.5);
#2039=LINE('',#2036,#2038);
#2040=EDGE_CURVE('',#1502,#1620,#2039,.T.);
#2041=ORIENTED_EDGE('',*,*,#2040,.F.);
#2042=ORIENTED_EDGE('',*,*,#1531,.F.);
#2043=EDGE_LOOP('',(#2034,#2035,#2041,#2042));
#2044=FACE_BOUND('',#2043,.T.);
#2045=ADVANCED_FACE('',(#2044),#2033,.T.);
#2046=CARTESIAN_POINT('',(-3.3,-1.5,173.6));
#2047=DIRECTION('',(0.,1.,0.));
#2048=DIRECTION('',(0.,0.,1.));
#2049=AXIS2_PLACEMENT_3D('',#2046,#2047,#2048);
#2050=PLANE('',#2049);
#2051=ORIENTED_EDGE('',*,*,#2040,.T.);
#2052=ORIENTED_EDGE('',*,*,#1625,.F.);
#2053=ORIENTED_EDGE('',*,*,#1999,.F.);
#2054=ORIENTED_EDGE('',*,*,#1509,.F.);
#2055=EDGE_LOOP('',(#2051,#2052,#2053,#2054));
#2056=FACE_BOUND('',#2055,.T.);
#2057=ADVANCED_FACE('',(#2056),#2050,.T.);
#2058=CARTESIAN_POINT('',(-13.3,5.8,173.6));
#2059=DIRECTION('',(1.,0.,0.));
#2060=DIRECTION('',(0.,0.,-1.));
#2061=AXIS2_PLACEMENT_3D('',#2058,#2059,#2060);
#2062=PLANE('',#2061);
#2063=CARTESIAN_POINT('',(-13.3,4.3,8.6));
#2064=DIRECTION('',(0.,0.,-1.));
#2065=VECTOR('',#2064,2.5);
#2066=LINE('',#2063,#2065);
#2067=EDGE_CURVE('',#1538,#1680,#2066,.T.);
#2068=ORIENTED_EDGE('',*,*,#2067,.T.);
#2069=ORIENTED_EDGE('',*,*,#1685,.F.);
#2070=CARTESIAN_POINT('',(-13.3,7.3,8.6));
#2071=DIRECTION('',(0.,0.,-1.));
#2072=VECTOR('',#2071,2.5);
#2073=LINE('',#2070,#2072);
#2074=EDGE_CURVE('',#1546,#1678,#2073,.T.);
#2075=ORIENTED_EDGE('',*,*,#2074,.F.);
#2076=ORIENTED_EDGE('',*,*,#1551,.F.);
#2077=EDGE_LOOP('',(#2068,#2069,#2075,#2076));
#2078=FACE_BOUND('',#2077,.T.);
#2079=ADVANCED_FACE('',(#2078),#2062,.T.);
#2080=CARTESIAN_POINT('',(-3.3,7.3,173.6));
#2081=DIRECTION('',(0.,-1.,0.));
#2082=DIRECTION('',(0.,0.,-1.));
#2083=AXIS2_PLACEMENT_3D('',#2080,#2081,#2082);
#2084=PLANE('',#2083);
#2085=ORIENTED_EDGE('',*,*,#2074,.T.);
#2086=ORIENTED_EDGE('',*,*,#1707,.F.);
#2087=CARTESIAN_POINT('',(6.7,7.3,8.6));
#2088=DIRECTION('',(0.,0.,-1.));
#2089=VECTOR('',#2088,2.5);
#2090=LINE('',#2087,#2089);
#2091=EDGE_CURVE('',#1554,#1696,#2090,.T.);
#2092=ORIENTED_EDGE('',*,*,#2091,.F.);
#2093=ORIENTED_EDGE('',*,*,#1559,.F.);
#2094=EDGE_LOOP('',(#2085,#2086,#2092,#2093));
#2095=FACE_BOUND('',#2094,.T.);
#2096=ADVANCED_FACE('',(#2095),#2084,.T.);
#2097=CARTESIAN_POINT('',(6.7,5.8,173.6));
#2098=DIRECTION('',(-1.,0.,0.));
#2099=DIRECTION('',(0.,0.,1.));
#2100=AXIS2_PLACEMENT_3D('',#2097,#2098,#2099);
#2101=PLANE('',#2100);
#2102=ORIENTED_EDGE('',*,*,#2091,.T.);
#2103=ORIENTED_EDGE('',*,*,#1701,.F.);
#2104=CARTESIAN_POINT('',(6.7,4.3,8.6));
#2105=DIRECTION('',(0.,0.,-1.));
#2106=VECTOR('',#2105,2.5);
#2107=LINE('',#2104,#2106);
#2108=EDGE_CURVE('',#1536,#1688,#2107,.T.);
#2109=ORIENTED_EDGE('',*,*,#2108,.F.);
#2110=ORIENTED_EDGE('',*,*,#1565,.F.);
#2111=EDGE_LOOP('',(#2102,#2103,#2109,#2110));
#2112=FACE_BOUND('',#2111,.T.);
#2113=ADVANCED_FACE('',(#2112),#2101,.T.);
#2114=CARTESIAN_POINT('',(-3.3,4.3,173.6));
#2115=DIRECTION('',(0.,1.,0.));
#2116=DIRECTION('',(0.,0.,1.));
#2117=AXIS2_PLACEMENT_3D('',#2114,#2115,#2116);
#2118=PLANE('',#2117);
#2119=ORIENTED_EDGE('',*,*,#2108,.T.);
#2120=ORIENTED_EDGE('',*,*,#1693,.F.);
#2121=ORIENTED_EDGE('',*,*,#2067,.F.);
#2122=ORIENTED_EDGE('',*,*,#1543,.F.);
#2123=EDGE_LOOP('',(#2119,#2120,#2121,#2122));
#2124=FACE_BOUND('',#2123,.T.);
#2125=ADVANCED_FACE('',(#2124),#2118,.T.);
#2126=CARTESIAN_POINT('',(-3.3,-7.3,173.6));
#2127=DIRECTION('',(0.,-1.,0.));
#2128=DIRECTION('',(0.,0.,-1.));
#2129=AXIS2_PLACEMENT_3D('',#2126,#2127,#2128);
#2130=PLANE('',#2129);
#2131=ORIENTED_EDGE('',*,*,#1423,.T.);
#2132=CARTESIAN_POINT('',(6.7,-7.3,8.6));
#2133=DIRECTION('',(0.,0.,-1.));
#2134=VECTOR('',#2133,2.5);
#2135=LINE('',#2132,#2134);
#2136=EDGE_CURVE('',#1418,#1586,#2135,.T.);
#2137=ORIENTED_EDGE('',*,*,#2136,.T.);
#2138=ORIENTED_EDGE('',*,*,#1591,.T.);
#2139=CARTESIAN_POINT('',(-13.3,-7.3,8.6));
#2140=DIRECTION('',(0.,0.,-1.));
#2141=VECTOR('',#2140,2.5);
#2142=LINE('',#2139,#2141);
#2143=EDGE_CURVE('',#1416,#1576,#2142,.T.);
#2144=ORIENTED_EDGE('',*,*,#2143,.F.);
#2145=EDGE_LOOP('',(#2131,#2137,#2138,#2144));
#2146=FACE_BOUND('',#2145,.T.);
#2147=ADVANCED_FACE('',(#2146),#2130,.F.);
#2148=CARTESIAN_POINT('',(-13.3,-5.8,173.6));
#2149=DIRECTION('',(-1.,0.,0.));
#2150=DIRECTION('',(0.,0.,1.));
#2151=AXIS2_PLACEMENT_3D('',#2148,#2149,#2150);
#2152=PLANE('',#2151);
#2153=ORIENTED_EDGE('',*,*,#1431,.T.);
#2154=ORIENTED_EDGE('',*,*,#2143,.T.);
#2155=ORIENTED_EDGE('',*,*,#1583,.T.);
#2156=CARTESIAN_POINT('',(-13.3,-4.3,8.6));
#2157=DIRECTION('',(0.,0.,-1.));
#2158=VECTOR('',#2157,2.5);
#2159=LINE('',#2156,#2158);
#2160=EDGE_CURVE('',#1426,#1578,#2159,.T.);
#2161=ORIENTED_EDGE('',*,*,#2160,.F.);
#2162=EDGE_LOOP('',(#2153,#2154,#2155,#2161));
#2163=FACE_BOUND('',#2162,.T.);
#2164=ADVANCED_FACE('',(#2163),#2152,.F.);
#2165=CARTESIAN_POINT('',(-3.3,-4.3,173.6));
#2166=DIRECTION('',(0.,1.,0.));
#2167=DIRECTION('',(0.,0.,1.));
#2168=AXIS2_PLACEMENT_3D('',#2165,#2166,#2167);
#2169=PLANE('',#2168);
#2170=ORIENTED_EDGE('',*,*,#1439,.T.);
#2171=ORIENTED_EDGE('',*,*,#2160,.T.);
#2172=ORIENTED_EDGE('',*,*,#1605,.T.);
#2173=CARTESIAN_POINT('',(6.7,-4.3,8.6));
#2174=DIRECTION('',(0.,0.,-1.));
#2175=VECTOR('',#2174,2.5);
#2176=LINE('',#2173,#2175);
#2177=EDGE_CURVE('',#1434,#1594,#2176,.T.);
#2178=ORIENTED_EDGE('',*,*,#2177,.F.);
#2179=EDGE_LOOP('',(#2170,#2171,#2172,#2178));
#2180=FACE_BOUND('',#2179,.T.);
#2181=ADVANCED_FACE('',(#2180),#2169,.F.);
#2182=CARTESIAN_POINT('',(6.7,-5.8,173.6));
#2183=DIRECTION('',(1.,0.,0.));
#2184=DIRECTION('',(0.,0.,-1.));
#2185=AXIS2_PLACEMENT_3D('',#2182,#2183,#2184);
#2186=PLANE('',#2185);
#2187=ORIENTED_EDGE('',*,*,#1445,.T.);
#2188=ORIENTED_EDGE('',*,*,#2177,.T.);
#2189=ORIENTED_EDGE('',*,*,#1599,.T.);
#2190=ORIENTED_EDGE('',*,*,#2136,.F.);
#2191=EDGE_LOOP('',(#2187,#2188,#2189,#2190));
#2192=FACE_BOUND('',#2191,.T.);
#2193=ADVANCED_FACE('',(#2192),#2186,.F.);
#2194=CARTESIAN_POINT('',(-17.55,-0.,6.));
#2195=DIRECTION('',(0.,0.,-1.));
#2196=DIRECTION('',(-1.,0.,0.));
#2197=AXIS2_PLACEMENT_3D('',#2194,#2195,#2196);
#2198=CYLINDRICAL_SURFACE('',#2197,1.);
#2199=CARTESIAN_POINT('',(-18.55,-0.,6.));
#2200=VERTEX_POINT('',#2199);
#2201=CARTESIAN_POINT('',(-18.55,-0.,0.));
#2202=DIRECTION('',(-0.,-0.,1.));
#2203=VECTOR('',#2202,6.);
#2204=LINE('',#2201,#2203);
#2205=EDGE_CURVE('',#1308,#2200,#2204,.T.);
#2206=ORIENTED_EDGE('',*,*,#2205,.F.);
#2207=ORIENTED_EDGE('',*,*,#1314,.F.);
#2208=ORIENTED_EDGE('',*,*,#1321,.F.);
#2209=ORIENTED_EDGE('',*,*,#2205,.T.);
#2210=CARTESIAN_POINT('',(-16.55,-0.,6.));
#2211=VERTEX_POINT('',#2210);
#2212=CARTESIAN_POINT('',(-17.55,-0.,6.));
#2213=DIRECTION('',(0.,0.,1.));
#2214=DIRECTION('',(1.,0.,-0.));
#2215=AXIS2_PLACEMENT_3D('',#2212,#2213,#2214);
#2216=CIRCLE('',#2215,1.);
#2217=EDGE_CURVE('',#2200,#2211,#2216,.T.);
#2218=ORIENTED_EDGE('',*,*,#2217,.T.);
#2219=CARTESIAN_POINT('',(-17.55,-0.,6.));
#2220=DIRECTION('',(0.,0.,1.));
#2221=DIRECTION('',(1.,0.,-0.));
#2222=AXIS2_PLACEMENT_3D('',#2219,#2220,#2221);
#2223=CIRCLE('',#2222,1.);
#2224=EDGE_CURVE('',#2211,#2200,#2223,.T.);
#2225=ORIENTED_EDGE('',*,*,#2224,.T.);
#2226=EDGE_LOOP('',(#2206,#2207,#2208,#2209,#2218,#2225));
#2227=FACE_BOUND('',#2226,.T.);
#2228=ADVANCED_FACE('',(#2227),#2198,.F.);
#2229=CARTESIAN_POINT('',(0.,0.,6.));
#2230=DIRECTION('',(0.,0.,1.));
#2231=DIRECTION('',(1.,0.,0.));
#2232=AXIS2_PLACEMENT_3D('',#2229,#2230,#2231);
#2233=PLANE('',#2232);
#2234=ORIENTED_EDGE('',*,*,#2217,.F.);
#2235=ORIENTED_EDGE('',*,*,#2224,.F.);
#2236=EDGE_LOOP('',(#2234,#2235));
#2237=FACE_BOUND('',#2236,.T.);
#2238=ADVANCED_FACE('',(#2237),#2233,.F.);
#2239=CARTESIAN_POINT('',(-16.,10.,8.6));
#2240=DIRECTION('',(0.,0.,-1.));
#2241=DIRECTION('',(-1.,0.,0.));
#2242=AXIS2_PLACEMENT_3D('',#2239,#2240,#2241);
#2243=CYLINDRICAL_SURFACE('',#2242,5.);
#2244=ORIENTED_EDGE('',*,*,#1466,.F.);
#2245=ORIENTED_EDGE('',*,*,#1831,.F.);
#2246=ORIENTED_EDGE('',*,*,#1399,.F.);
#2247=ORIENTED_EDGE('',*,*,#1847,.F.);
#2248=EDGE_LOOP('',(#2244,#2245,#2246,#2247));
#2249=FACE_BOUND('',#2248,.T.);
#2250=ADVANCED_FACE('',(#2249),#2243,.T.);
#2251=CARTESIAN_POINT('',(-16.,-10.,8.6));
#2252=DIRECTION('',(0.,0.,-1.));
#2253=DIRECTION('',(-1.,0.,0.));
#2254=AXIS2_PLACEMENT_3D('',#2251,#2252,#2253);
#2255=CYLINDRICAL_SURFACE('',#2254,5.);
#2256=ORIENTED_EDGE('',*,*,#1483,.F.);
#2257=ORIENTED_EDGE('',*,*,#1854,.F.);
#2258=ORIENTED_EDGE('',*,*,#1382,.F.);
#2259=ORIENTED_EDGE('',*,*,#1785,.F.);
#2260=EDGE_LOOP('',(#2256,#2257,#2258,#2259));
#2261=FACE_BOUND('',#2260,.T.);
#2262=ADVANCED_FACE('',(#2261),#2255,.T.);
#2263=CARTESIAN_POINT('',(15.999999566,-10.098,-4.000002622));
#2264=DIRECTION('',(0.000000375,0.,1.));
#2265=DIRECTION('',(1.,0.,-0.000000375));
#2266=AXIS2_PLACEMENT_3D('',#2263,#2264,#2265);
#2267=PLANE('',#2266);
#2268=ORIENTED_EDGE('',*,*,#1893,.F.);
#2269=ORIENTED_EDGE('',*,*,#1764,.T.);
#2270=ORIENTED_EDGE('',*,*,#1800,.T.);
#2271=CARTESIAN_POINT('',(12.,-10.1,-4.000002999));
#2272=DIRECTION('',(0.,-1.,0.));
#2273=VECTOR('',#2272,4.9);
#2274=LINE('',#2271,#2273);
#2275=EDGE_CURVE('',#1888,#1789,#2274,.T.);
#2276=ORIENTED_EDGE('',*,*,#2275,.F.);
#2277=EDGE_LOOP('',(#2268,#2269,#2270,#2276));
#2278=FACE_BOUND('',#2277,.T.);
#2279=ADVANCED_FACE('',(#2278),#2267,.F.);
#2280=CARTESIAN_POINT('',(14.,-10.098,-2.000002999));
#2281=DIRECTION('',(-0.707106781,0.,0.707106781));
#2282=DIRECTION('',(0.707106781,0.,0.707106781));
#2283=AXIS2_PLACEMENT_3D('',#2280,#2281,#2282);
#2284=PLANE('',#2283);
#2285=ORIENTED_EDGE('',*,*,#1365,.F.);
#2286=ORIENTED_EDGE('',*,*,#1899,.T.);
#2287=ORIENTED_EDGE('',*,*,#2275,.T.);
#2288=ORIENTED_EDGE('',*,*,#1794,.F.);
#2289=EDGE_LOOP('',(#2285,#2286,#2287,#2288));
#2290=FACE_BOUND('',#2289,.T.);
#2291=ADVANCED_FACE('',(#2290),#2284,.T.);
#2292=CARTESIAN_POINT('',(15.9999985,10.098,-4.000002999));
#2293=DIRECTION('',(-0.000000375,0.,-1.));
#2294=DIRECTION('',(-1.,0.,0.000000375));
#2295=AXIS2_PLACEMENT_3D('',#2292,#2293,#2294);
#2296=PLANE('',#2295);
#2297=ORIENTED_EDGE('',*,*,#1939,.F.);
#2298=CARTESIAN_POINT('',(11.9999985,10.1,-4.0000015));
#2299=DIRECTION('',(0.,1.,0.));
#2300=VECTOR('',#2299,4.9);
#2301=LINE('',#2298,#2300);
#2302=EDGE_CURVE('',#1928,#1813,#2301,.T.);
#2303=ORIENTED_EDGE('',*,*,#2302,.T.);
#2304=ORIENTED_EDGE('',*,*,#1818,.F.);
#2305=ORIENTED_EDGE('',*,*,#1741,.F.);
#2306=EDGE_LOOP('',(#2297,#2303,#2304,#2305));
#2307=FACE_BOUND('',#2306,.T.);
#2308=ADVANCED_FACE('',(#2307),#2296,.T.);
#2309=CARTESIAN_POINT('',(14.,10.098,-2.));
#2310=DIRECTION('',(0.707106781,0.,-0.707106781));
#2311=DIRECTION('',(-0.707106781,0.,-0.707106781));
#2312=AXIS2_PLACEMENT_3D('',#2309,#2310,#2311);
#2313=PLANE('',#2312);
#2314=ORIENTED_EDGE('',*,*,#2302,.F.);
#2315=ORIENTED_EDGE('',*,*,#1933,.T.);
#2316=ORIENTED_EDGE('',*,*,#1333,.T.);
#2317=ORIENTED_EDGE('',*,*,#1824,.T.);
#2318=EDGE_LOOP('',(#2314,#2315,#2316,#2317));
#2319=FACE_BOUND('',#2318,.T.);
#2320=ADVANCED_FACE('',(#2319),#2313,.F.);
#2321=CLOSED_SHELL('',(#1409,#1569,#1711,#1774,#1805,#1836,#1858,#1903,#1920,#1960,#1977,#1989,#2011,#2028,#2045,#2057,#2079,#2096,#2113,#2125,#2147,#2164,#2181,#2193,#2228,#2238,
#2250,#2262,#2279,#2291,#2308,#2320));
#2322=MANIFOLD_SOLID_BREP('Top',#2321);
#1299=STYLED_ITEM('',(#1298),#2322);
#16=SHAPE_REPRESENTATION('root',(#15),#10);
#17=ADVANCED_BREP_SHAPE_REPRESENTATION('root',(#1291,#2322),#10);
#2330=SHAPE_REPRESENTATION_RELATIONSHIP('','',#16,#17);
#2331=CARTESIAN_POINT('',(0.,0.,0.));
#2332=DIRECTION('',(0.,0.,1.));
#2333=DIRECTION('',(1.,0.,0.));
#2334=AXIS2_PLACEMENT_3D('',#2331,#2332,#2333);
#2336=MAPPED_ITEM('',#2335,#2334);
#2335=REPRESENTATION_MAP(#2334,#16);
#2337=APPLICATION_CONTEXT('Managed model based 3d engineering');
#2338=APPLICATION_PROTOCOL_DEFINITION('international standard','ap242_managed_model_based_3d_engineering',2014,#2337);
#2339=PRODUCT_CONTEXT('',#2337,'mechanical');
#2340=PRODUCT_DEFINITION_CONTEXT('part definition',#2337,'design');
#24=PRODUCT('root','root','',(#2339));
#2341=PRODUCT_RELATED_PRODUCT_CATEGORY('part','',(#24));
#2342=PRODUCT_DEFINITION_FORMATION_WITH_SPECIFIED_SOURCE('','',#24,.NOT_KNOWN.);
#25=PRODUCT_DEFINITION('design','',#2342,#2340);
#23=PRODUCT_DEFINITION_SHAPE('','',#25);
#2343=SHAPE_DEFINITION_REPRESENTATION(#23,#16);
#11=DRAUGHTING_MODEL('',(#2336),#10);
#2344=DESCRIPTIVE_REPRESENTATION_ITEM('KEY','/Users/luisschulte/Library/Containers/com.shapr3d.shapr/Data/tmp/3FEC70BA-D5C5-4770-B5E7-888DA9CF4CC2.tmp');
#2345=PROPERTY_DEFINITION('KEY','',#25);
#2346=REPRESENTATION('',(#2344),#10);
#2347=PROPERTY_DEFINITION_REPRESENTATION(#2345,#2346);
#2348=GENERAL_PROPERTY('','KEY','');
#2349=GENERAL_PROPERTY_ASSOCIATION('','',#2348,#2345);
#1=MECHANICAL_DESIGN_GEOMETRIC_PRESENTATION_REPRESENTATION('',(#26,#1299),#10);
ENDSEC;
END-ISO-10303-21;
